%TF.GenerationSoftware,KiCad,Pcbnew,9.0.7*%
%TF.CreationDate,2026-03-03T12:04:43+01:00*%
%TF.ProjectId,Arduino_Sense,41726475-696e-46f5-9f53-656e73652e6b,rev?*%
%TF.SameCoordinates,Original*%
%TF.FileFunction,Copper,L2,Bot*%
%TF.FilePolarity,Positive*%
%FSLAX46Y46*%
G04 Gerber Fmt 4.6, Leading zero omitted, Abs format (unit mm)*
G04 Created by KiCad (PCBNEW 9.0.7) date 2026-03-03 12:04:43*
%MOMM*%
%LPD*%
G01*
G04 APERTURE LIST*
%TA.AperFunction,ComponentPad*%
%ADD10C,3.600000*%
%TD*%
%TA.AperFunction,ConnectorPad*%
%ADD11C,5.600000*%
%TD*%
%TA.AperFunction,ComponentPad*%
%ADD12C,1.600000*%
%TD*%
%TA.AperFunction,ComponentPad*%
%ADD13R,1.350000X1.350000*%
%TD*%
%TA.AperFunction,ComponentPad*%
%ADD14C,1.350000*%
%TD*%
%TA.AperFunction,ComponentPad*%
%ADD15R,1.700000X1.700000*%
%TD*%
%TA.AperFunction,ComponentPad*%
%ADD16C,1.700000*%
%TD*%
%TA.AperFunction,Conductor*%
%ADD17C,0.400000*%
%TD*%
G04 APERTURE END LIST*
D10*
%TO.P,H3,1,1*%
%TO.N,GND*%
X122500000Y-99500000D03*
D11*
X122500000Y-99500000D03*
%TD*%
D12*
%TO.P,R2,1*%
%TO.N,P_Bat*%
X129000000Y-62420000D03*
%TO.P,R2,2*%
%TO.N,GND*%
X129000000Y-72580000D03*
%TD*%
D10*
%TO.P,H1,1,1*%
%TO.N,GND*%
X122500000Y-32000000D03*
D11*
X122500000Y-32000000D03*
%TD*%
D13*
%TO.P,J5,1,GND*%
%TO.N,GND*%
X129500000Y-84500000D03*
D14*
%TO.P,J5,2,VCC*%
%TO.N,Valim*%
X129500000Y-82500000D03*
%TO.P,J5,3,SIG1*%
%TO.N,SDA_Lux*%
X129500000Y-80500000D03*
%TO.P,J5,4,SIG2*%
%TO.N,SCL_Lux*%
X129500000Y-78500000D03*
%TD*%
D12*
%TO.P,R1,1*%
%TO.N,Vbat*%
X124500000Y-72660000D03*
%TO.P,R1,2*%
%TO.N,P_Bat*%
X124500000Y-62500000D03*
%TD*%
D13*
%TO.P,J6,1*%
%TO.N,Vbat*%
X130000000Y-91000000D03*
D14*
%TO.P,J6,2*%
%TO.N,GND*%
X130000000Y-93000000D03*
%TD*%
D13*
%TO.P,J1,1*%
%TO.N,Vbat*%
X124500000Y-91000000D03*
D14*
%TO.P,J1,2*%
%TO.N,GND*%
X124500000Y-93000000D03*
%TD*%
D13*
%TO.P,J3,1,GND*%
%TO.N,GND*%
X159000000Y-64500000D03*
D14*
%TO.P,J3,2,VCC*%
%TO.N,Valim*%
X157000000Y-64500000D03*
%TO.P,J3,3,SIG1*%
%TO.N,DATA_TEMP_HUM*%
X155000000Y-64500000D03*
%TO.P,J3,4,SIG2*%
%TO.N,unconnected-(J3-SIG2-Pad4)*%
X153000000Y-64500000D03*
%TD*%
D10*
%TO.P,H2,1,1*%
%TO.N,GND*%
X160500000Y-32000000D03*
D11*
X160500000Y-32000000D03*
%TD*%
D13*
%TO.P,J4,1,GND*%
%TO.N,GND*%
X159000000Y-89500000D03*
D14*
%TO.P,J4,2,VCC*%
%TO.N,Valim*%
X157000000Y-89500000D03*
%TO.P,J4,3,SIG1*%
%TO.N,TX_LoRa*%
X155000000Y-89500000D03*
%TO.P,J4,4,SIG2*%
%TO.N,RX_LoRa*%
X153000000Y-89500000D03*
%TD*%
D15*
%TO.P,U3,1,VOUT*%
%TO.N,Valim*%
X134380000Y-97000000D03*
D16*
%TO.P,U3,2,GND*%
%TO.N,GND*%
X136920000Y-97000000D03*
%TO.P,U3,3,VIN*%
%TO.N,Vbat*%
X139460000Y-97000000D03*
%TO.P,U3,4,/SHDN*%
%TO.N,{slash}SHDN*%
X142000000Y-97000000D03*
%TD*%
D10*
%TO.P,H4,1,1*%
%TO.N,GND*%
X160500000Y-99500000D03*
D11*
X160500000Y-99500000D03*
%TD*%
D15*
%TO.P,U1,1,SCK_P013_D13*%
%TO.N,unconnected-(U1-SCK_P013_D13-Pad1)*%
X133500000Y-55300000D03*
D16*
%TO.P,U1,2,3V3*%
%TO.N,unconnected-(U1-3V3-Pad2)*%
X133500000Y-57840000D03*
%TO.P,U1,3,AREF*%
%TO.N,unconnected-(U1-AREF-Pad3)*%
X133500000Y-60380000D03*
%TO.P,U1,4,P004_A0*%
%TO.N,P_Bat*%
X133500000Y-62920000D03*
%TO.P,U1,5,P005_A1*%
%TO.N,unconnected-(U1-P005_A1-Pad5)*%
X133500000Y-65460000D03*
%TO.P,U1,6,P030_A2*%
%TO.N,unconnected-(U1-P030_A2-Pad6)*%
X133500000Y-68000000D03*
%TO.P,U1,7,P029_A3*%
%TO.N,unconnected-(U1-P029_A3-Pad7)*%
X133500000Y-70540000D03*
%TO.P,U1,8,SDA_P031_A4*%
%TO.N,SDA_Lux*%
X133500000Y-73080000D03*
%TO.P,U1,9,SCL_P002_A5*%
%TO.N,SCL_Lux*%
X133500000Y-75620000D03*
%TO.P,U1,10,P028_A6*%
%TO.N,unconnected-(U1-P028_A6-Pad10)*%
X133500000Y-78160000D03*
%TO.P,U1,11,P003_A7*%
%TO.N,unconnected-(U1-P003_A7-Pad11)*%
X133500000Y-80700000D03*
%TO.P,U1,12,5V*%
%TO.N,5V*%
X133500000Y-83240000D03*
%TO.P,U1,13,/Reset*%
%TO.N,unconnected-(U1-{slash}Reset-Pad13)*%
X133500000Y-85780000D03*
%TO.P,U1,14,GND*%
%TO.N,GND*%
X133500000Y-88320000D03*
%TO.P,U1,15,VIN*%
%TO.N,Vbat*%
X133500000Y-90860000D03*
%TO.P,U1,16,MISO_P108_D12*%
%TO.N,unconnected-(U1-MISO_P108_D12-Pad16)*%
X148750000Y-55300000D03*
%TO.P,U1,17,MOSI_P101_D11*%
%TO.N,unconnected-(U1-MOSI_P101_D11-Pad17)*%
X148750000Y-57840000D03*
%TO.P,U1,18,P102_D10*%
%TO.N,DATA_TEMP_HUM*%
X148750000Y-60380000D03*
%TO.P,U1,19,P027_D9*%
%TO.N,unconnected-(U1-P027_D9-Pad19)*%
X148750000Y-62920000D03*
%TO.P,U1,20,P021_D8*%
%TO.N,Buzzer*%
X148750000Y-65460000D03*
%TO.P,U1,21,P023_D7*%
%TO.N,unconnected-(U1-P023_D7-Pad21)*%
X148750000Y-68000000D03*
%TO.P,U1,22,P114_D6*%
%TO.N,TX_ESP32*%
X148750000Y-70540000D03*
%TO.P,U1,23,P113_D5*%
%TO.N,RX_ESP32*%
X148750000Y-73080000D03*
%TO.P,U1,24,P115_D4*%
%TO.N,unconnected-(U1-P115_D4-Pad24)*%
X148750000Y-75620000D03*
%TO.P,U1,25,P112_D3*%
%TO.N,SIG_INT*%
X148750000Y-78160000D03*
%TO.P,U1,26,P111_D2*%
%TO.N,{slash}SHDN*%
X148750000Y-80700000D03*
%TO.P,U1,27,GND*%
%TO.N,GND*%
X148750000Y-83240000D03*
%TO.P,U1,28,/Reset*%
%TO.N,unconnected-(U1-{slash}Reset-Pad28)*%
X148750000Y-85780000D03*
%TO.P,U1,29,P110_RX*%
%TO.N,RX_LoRa*%
X148750000Y-88320000D03*
%TO.P,U1,30,P103_TX*%
%TO.N,TX_LoRa*%
X148750000Y-90820000D03*
%TD*%
%TO.P,U2,1*%
%TO.N,Buzzer*%
X134000000Y-41500000D03*
%TO.P,U2,2*%
%TO.N,GND*%
X149000000Y-41500000D03*
%TD*%
D13*
%TO.P,J2,1,GND*%
%TO.N,unconnected-(J2-GND-Pad1)*%
X159000000Y-72500000D03*
D14*
%TO.P,J2,2,VCC*%
%TO.N,SIG_INT*%
X157000000Y-72500000D03*
%TO.P,J2,3,SIG1*%
%TO.N,TX_ESP32*%
X155000000Y-72500000D03*
%TO.P,J2,4,SIG2*%
%TO.N,RX_ESP32*%
X153000000Y-72500000D03*
%TD*%
D17*
%TO.N,SDA_Lux*%
X131745000Y-73080000D02*
X133500000Y-73080000D01*
X127800000Y-77025000D02*
X131745000Y-73080000D01*
X127800000Y-80300000D02*
X127800000Y-77025000D01*
X128000000Y-80500000D02*
X127800000Y-80300000D01*
X129000000Y-80500000D02*
X128000000Y-80500000D01*
%TO.N,Valim*%
X127400000Y-82500000D02*
X129000000Y-82500000D01*
X126850000Y-81950000D02*
X127400000Y-82500000D01*
X126000000Y-70000000D02*
X126850000Y-70850000D01*
X126850000Y-70850000D02*
X126850000Y-81950000D01*
X121500000Y-71000000D02*
X122500000Y-70000000D01*
X122500000Y-95500000D02*
X121500000Y-94500000D01*
X122500000Y-70000000D02*
X126000000Y-70000000D01*
X132880000Y-95500000D02*
X122500000Y-95500000D01*
X121500000Y-94500000D02*
X121500000Y-71000000D01*
X134380000Y-97000000D02*
X132880000Y-95500000D01*
X157000000Y-93050000D02*
X157000000Y-89500000D01*
X155650000Y-94400000D02*
X157000000Y-93050000D01*
X135000000Y-99500000D02*
X146000000Y-99500000D01*
X134380000Y-98880000D02*
X135000000Y-99500000D01*
X146000000Y-99500000D02*
X151100000Y-94400000D01*
X134380000Y-97000000D02*
X134380000Y-98880000D01*
X151100000Y-94400000D02*
X155650000Y-94400000D01*
X157000000Y-66000000D02*
X157000000Y-64500000D01*
X161500000Y-70500000D02*
X157000000Y-66000000D01*
X157000000Y-79750000D02*
X161500000Y-75250000D01*
X157000000Y-89500000D02*
X157000000Y-79750000D01*
X161500000Y-75250000D02*
X161500000Y-70500000D01*
%TO.N,TX_ESP32*%
X155000000Y-71000000D02*
X155000000Y-72500000D01*
X154540000Y-70540000D02*
X155000000Y-71000000D01*
X148750000Y-70540000D02*
X154540000Y-70540000D01*
%TO.N,RX_ESP32*%
X151150000Y-72500000D02*
X153000000Y-72500000D01*
X150570000Y-73080000D02*
X151150000Y-72500000D01*
X148750000Y-73080000D02*
X150570000Y-73080000D01*
%TO.N,Buzzer*%
X141500000Y-45500000D02*
X137500000Y-41500000D01*
X141500000Y-62100000D02*
X141500000Y-45500000D01*
X144860000Y-65460000D02*
X141500000Y-62100000D01*
X137500000Y-41500000D02*
X134000000Y-41500000D01*
X148750000Y-65460000D02*
X144860000Y-65460000D01*
%TO.N,SCL_Lux*%
X129500000Y-78000000D02*
X131880000Y-75620000D01*
X129500000Y-78500000D02*
X129500000Y-78000000D01*
X131880000Y-75620000D02*
X133500000Y-75620000D01*
%TO.N,Vbat*%
X124500000Y-72660000D02*
X124500000Y-91000000D01*
X124500000Y-91000000D02*
X130000000Y-91000000D01*
X139460000Y-97000000D02*
X139460000Y-91460000D01*
X133360000Y-91000000D02*
X133500000Y-90860000D01*
X130000000Y-91000000D02*
X133360000Y-91000000D01*
X139460000Y-91460000D02*
X138860000Y-90860000D01*
X138860000Y-90860000D02*
X133500000Y-90860000D01*
%TO.N,SIG_INT*%
X151910000Y-75000000D02*
X156500000Y-75000000D01*
X156500000Y-75000000D02*
X157000000Y-74500000D01*
X148750000Y-78160000D02*
X151910000Y-75000000D01*
X157000000Y-74500000D02*
X157000000Y-72500000D01*
%TO.N,DATA_TEMP_HUM*%
X155000000Y-63500000D02*
X155000000Y-64500000D01*
X148750000Y-60380000D02*
X151880000Y-60380000D01*
X151880000Y-60380000D02*
X155000000Y-63500000D01*
%TO.N,TX_LoRa*%
X150180000Y-90820000D02*
X150860000Y-91500000D01*
X154500000Y-91500000D02*
X155000000Y-91000000D01*
X148750000Y-90820000D02*
X150180000Y-90820000D01*
X155000000Y-91000000D02*
X155000000Y-89500000D01*
X150860000Y-91500000D02*
X154500000Y-91500000D01*
%TO.N,RX_LoRa*%
X153000000Y-88500000D02*
X153000000Y-89500000D01*
X152820000Y-88320000D02*
X153000000Y-88500000D01*
X148750000Y-88320000D02*
X152820000Y-88320000D01*
%TO.N,P_Bat*%
X131420000Y-62920000D02*
X133500000Y-62920000D01*
X130920000Y-62420000D02*
X131420000Y-62920000D01*
X129000000Y-62420000D02*
X130920000Y-62420000D01*
X125000000Y-62500000D02*
X128920000Y-62500000D01*
X128920000Y-62500000D02*
X129000000Y-62420000D01*
%TO.N,Valim*%
X134380000Y-96380000D02*
X135000000Y-97000000D01*
%TO.N,{slash}SHDN*%
X144300000Y-80700000D02*
X148750000Y-80700000D01*
X142000000Y-83000000D02*
X144300000Y-80700000D01*
X142000000Y-97000000D02*
X142000000Y-83000000D01*
%TD*%
%TA.AperFunction,Conductor*%
%TO.N,GND*%
G36*
X147593492Y-81420185D02*
G01*
X147626769Y-81451614D01*
X147643463Y-81474590D01*
X147719892Y-81579788D01*
X147870213Y-81730109D01*
X148042179Y-81855048D01*
X148042181Y-81855049D01*
X148042184Y-81855051D01*
X148051493Y-81859794D01*
X148102290Y-81907766D01*
X148119087Y-81975587D01*
X148096552Y-82041722D01*
X148051505Y-82080760D01*
X148042446Y-82085376D01*
X148042440Y-82085380D01*
X147988282Y-82124727D01*
X147988282Y-82124728D01*
X148620591Y-82757037D01*
X148557007Y-82774075D01*
X148442993Y-82839901D01*
X148349901Y-82932993D01*
X148284075Y-83047007D01*
X148267037Y-83110591D01*
X147634728Y-82478282D01*
X147634727Y-82478282D01*
X147595380Y-82532439D01*
X147498904Y-82721782D01*
X147433242Y-82923869D01*
X147433242Y-82923872D01*
X147400000Y-83133753D01*
X147400000Y-83346246D01*
X147433242Y-83556127D01*
X147433242Y-83556130D01*
X147498904Y-83758217D01*
X147595375Y-83947550D01*
X147634728Y-84001716D01*
X148267037Y-83369408D01*
X148284075Y-83432993D01*
X148349901Y-83547007D01*
X148442993Y-83640099D01*
X148557007Y-83705925D01*
X148620590Y-83722962D01*
X147988282Y-84355269D01*
X147988282Y-84355270D01*
X148042452Y-84394626D01*
X148042451Y-84394626D01*
X148051495Y-84399234D01*
X148102292Y-84447208D01*
X148119087Y-84515029D01*
X148096550Y-84581164D01*
X148051499Y-84620202D01*
X148042182Y-84624949D01*
X147870213Y-84749890D01*
X147719890Y-84900213D01*
X147594951Y-85072179D01*
X147498444Y-85261585D01*
X147432753Y-85463760D01*
X147399500Y-85673713D01*
X147399500Y-85886286D01*
X147432753Y-86096239D01*
X147498444Y-86298414D01*
X147594951Y-86487820D01*
X147719890Y-86659786D01*
X147870213Y-86810109D01*
X148042182Y-86935050D01*
X148050946Y-86939516D01*
X148101742Y-86987491D01*
X148118536Y-87055312D01*
X148095998Y-87121447D01*
X148050946Y-87160484D01*
X148042182Y-87164949D01*
X147870213Y-87289890D01*
X147719890Y-87440213D01*
X147594951Y-87612179D01*
X147498444Y-87801585D01*
X147432753Y-88003760D01*
X147424882Y-88053458D01*
X147399500Y-88213713D01*
X147399500Y-88426287D01*
X147406077Y-88467812D01*
X147432735Y-88636127D01*
X147432754Y-88636243D01*
X147479819Y-88781094D01*
X147498444Y-88838414D01*
X147594951Y-89027820D01*
X147719890Y-89199786D01*
X147870209Y-89350105D01*
X147870214Y-89350109D01*
X148034793Y-89469682D01*
X148077459Y-89525011D01*
X148083438Y-89594625D01*
X148050833Y-89656420D01*
X148034793Y-89670318D01*
X147870214Y-89789890D01*
X147870209Y-89789894D01*
X147719890Y-89940213D01*
X147594951Y-90112179D01*
X147498444Y-90301585D01*
X147432753Y-90503760D01*
X147405552Y-90675500D01*
X147399500Y-90713713D01*
X147399500Y-90926287D01*
X147409534Y-90989644D01*
X147431478Y-91128190D01*
X147432754Y-91136243D01*
X147496298Y-91331811D01*
X147498444Y-91338414D01*
X147594951Y-91527820D01*
X147719890Y-91699786D01*
X147870213Y-91850109D01*
X148042179Y-91975048D01*
X148042181Y-91975049D01*
X148042184Y-91975051D01*
X148231588Y-92071557D01*
X148433757Y-92137246D01*
X148643713Y-92170500D01*
X148643714Y-92170500D01*
X148856286Y-92170500D01*
X148856287Y-92170500D01*
X149066243Y-92137246D01*
X149268412Y-92071557D01*
X149457816Y-91975051D01*
X149537256Y-91917335D01*
X149629786Y-91850109D01*
X149629788Y-91850106D01*
X149629792Y-91850104D01*
X149780104Y-91699792D01*
X149816392Y-91649844D01*
X149871720Y-91607179D01*
X149941333Y-91601198D01*
X150003128Y-91633803D01*
X150004391Y-91635048D01*
X150413453Y-92044111D01*
X150413454Y-92044112D01*
X150413457Y-92044114D01*
X150528189Y-92120775D01*
X150655671Y-92173580D01*
X150665319Y-92175499D01*
X150715594Y-92185499D01*
X150791004Y-92200500D01*
X150791007Y-92200500D01*
X154568996Y-92200500D01*
X154660040Y-92182389D01*
X154704328Y-92173580D01*
X154768069Y-92147177D01*
X154831807Y-92120777D01*
X154831808Y-92120776D01*
X154831811Y-92120775D01*
X154946543Y-92044114D01*
X155544114Y-91446543D01*
X155620775Y-91331811D01*
X155673580Y-91204328D01*
X155700500Y-91068994D01*
X155700500Y-90931006D01*
X155700500Y-90507235D01*
X155720185Y-90440196D01*
X155737507Y-90418871D01*
X155744111Y-90412368D01*
X155765787Y-90396621D01*
X155896621Y-90265787D01*
X155905708Y-90253279D01*
X155913007Y-90246094D01*
X155935130Y-90234237D01*
X155955006Y-90218909D01*
X155965396Y-90218015D01*
X155974590Y-90213089D01*
X155999609Y-90215075D01*
X156024619Y-90212926D01*
X156033845Y-90217793D01*
X156044241Y-90218619D01*
X156064215Y-90233816D01*
X156086415Y-90245529D01*
X156099586Y-90260729D01*
X156099845Y-90260926D01*
X156099908Y-90261101D01*
X156100315Y-90261570D01*
X156103379Y-90265787D01*
X156103381Y-90265789D01*
X156234216Y-90396624D01*
X156248382Y-90406915D01*
X156291050Y-90462243D01*
X156299500Y-90507235D01*
X156299500Y-92708481D01*
X156279815Y-92775520D01*
X156263181Y-92796162D01*
X155396162Y-93663181D01*
X155334839Y-93696666D01*
X155308481Y-93699500D01*
X151031003Y-93699500D01*
X150922590Y-93721065D01*
X150922589Y-93721065D01*
X150895671Y-93726420D01*
X150768190Y-93779224D01*
X150653454Y-93855887D01*
X150653453Y-93855888D01*
X145746162Y-98763181D01*
X145684839Y-98796666D01*
X145658481Y-98799500D01*
X135341518Y-98799500D01*
X135312077Y-98790855D01*
X135282091Y-98784332D01*
X135277075Y-98780577D01*
X135274479Y-98779815D01*
X135253842Y-98763185D01*
X135116817Y-98626160D01*
X135083334Y-98564839D01*
X135080500Y-98538481D01*
X135080500Y-98474499D01*
X135100185Y-98407460D01*
X135152989Y-98361705D01*
X135204500Y-98350499D01*
X135277871Y-98350499D01*
X135277872Y-98350499D01*
X135337483Y-98344091D01*
X135472331Y-98293796D01*
X135587546Y-98207546D01*
X135673796Y-98092331D01*
X135724091Y-97957483D01*
X135730500Y-97897873D01*
X135730499Y-97873979D01*
X135733330Y-97860963D01*
X135743940Y-97841525D01*
X135750179Y-97820275D01*
X135766803Y-97799643D01*
X135766808Y-97799636D01*
X135766811Y-97799634D01*
X135766818Y-97799626D01*
X136437037Y-97129408D01*
X136454075Y-97192993D01*
X136519901Y-97307007D01*
X136612993Y-97400099D01*
X136727007Y-97465925D01*
X136790590Y-97482962D01*
X136158282Y-98115269D01*
X136158282Y-98115270D01*
X136212449Y-98154624D01*
X136401782Y-98251095D01*
X136603870Y-98316757D01*
X136813754Y-98350000D01*
X137026246Y-98350000D01*
X137236127Y-98316757D01*
X137236130Y-98316757D01*
X137438217Y-98251095D01*
X137627554Y-98154622D01*
X137681716Y-98115270D01*
X137681717Y-98115270D01*
X137049408Y-97482962D01*
X137112993Y-97465925D01*
X137227007Y-97400099D01*
X137320099Y-97307007D01*
X137385925Y-97192993D01*
X137402962Y-97129409D01*
X138035270Y-97761717D01*
X138035270Y-97761716D01*
X138074622Y-97707555D01*
X138079232Y-97698507D01*
X138127205Y-97647709D01*
X138195025Y-97630912D01*
X138261161Y-97653447D01*
X138300204Y-97698504D01*
X138304949Y-97707817D01*
X138429890Y-97879786D01*
X138580213Y-98030109D01*
X138752179Y-98155048D01*
X138752181Y-98155049D01*
X138752184Y-98155051D01*
X138941588Y-98251557D01*
X139143757Y-98317246D01*
X139353713Y-98350500D01*
X139353714Y-98350500D01*
X139566286Y-98350500D01*
X139566287Y-98350500D01*
X139776243Y-98317246D01*
X139978412Y-98251557D01*
X140167816Y-98155051D01*
X140254138Y-98092335D01*
X140339786Y-98030109D01*
X140339788Y-98030106D01*
X140339792Y-98030104D01*
X140490104Y-97879792D01*
X140490106Y-97879788D01*
X140490109Y-97879786D01*
X140615048Y-97707820D01*
X140615050Y-97707817D01*
X140615051Y-97707816D01*
X140619514Y-97699054D01*
X140667488Y-97648259D01*
X140735308Y-97631463D01*
X140801444Y-97653999D01*
X140840486Y-97699056D01*
X140844951Y-97707820D01*
X140969890Y-97879786D01*
X141120213Y-98030109D01*
X141292179Y-98155048D01*
X141292181Y-98155049D01*
X141292184Y-98155051D01*
X141481588Y-98251557D01*
X141683757Y-98317246D01*
X141893713Y-98350500D01*
X141893714Y-98350500D01*
X142106286Y-98350500D01*
X142106287Y-98350500D01*
X142316243Y-98317246D01*
X142518412Y-98251557D01*
X142707816Y-98155051D01*
X142794138Y-98092335D01*
X142879786Y-98030109D01*
X142879788Y-98030106D01*
X142879792Y-98030104D01*
X143030104Y-97879792D01*
X143030106Y-97879788D01*
X143030109Y-97879786D01*
X143155048Y-97707820D01*
X143155050Y-97707817D01*
X143155051Y-97707816D01*
X143251557Y-97518412D01*
X143317246Y-97316243D01*
X143350500Y-97106287D01*
X143350500Y-96893713D01*
X143317246Y-96683757D01*
X143251557Y-96481588D01*
X143155051Y-96292184D01*
X143155049Y-96292181D01*
X143155048Y-96292179D01*
X143030109Y-96120213D01*
X142879786Y-95969890D01*
X142751615Y-95876770D01*
X142708949Y-95821441D01*
X142700500Y-95776452D01*
X142700500Y-83341519D01*
X142720185Y-83274480D01*
X142736819Y-83253838D01*
X144553838Y-81436819D01*
X144615161Y-81403334D01*
X144641519Y-81400500D01*
X147526453Y-81400500D01*
X147593492Y-81420185D01*
G37*
%TD.AperFunction*%
%TA.AperFunction,Conductor*%
G36*
X125725520Y-70720185D02*
G01*
X125746162Y-70736819D01*
X126113181Y-71103838D01*
X126146666Y-71165161D01*
X126149500Y-71191519D01*
X126149500Y-81881006D01*
X126149500Y-82018994D01*
X126149500Y-82018996D01*
X126149499Y-82018996D01*
X126176418Y-82154322D01*
X126176421Y-82154332D01*
X126229222Y-82281807D01*
X126305887Y-82396545D01*
X126305888Y-82396546D01*
X126855886Y-82946542D01*
X126953458Y-83044114D01*
X126953459Y-83044115D01*
X127068182Y-83120771D01*
X127068186Y-83120773D01*
X127068189Y-83120775D01*
X127118125Y-83141459D01*
X127195671Y-83173580D01*
X127222591Y-83178934D01*
X127311840Y-83196687D01*
X127331006Y-83200500D01*
X127331007Y-83200500D01*
X128452336Y-83200500D01*
X128519375Y-83220185D01*
X128565130Y-83272989D01*
X128575074Y-83342147D01*
X128546049Y-83405703D01*
X128526647Y-83423767D01*
X128467809Y-83467813D01*
X128381649Y-83582906D01*
X128381645Y-83582913D01*
X128331403Y-83717620D01*
X128331401Y-83717627D01*
X128325000Y-83777155D01*
X128325000Y-84250000D01*
X129184314Y-84250000D01*
X129179920Y-84254394D01*
X129127259Y-84345606D01*
X129100000Y-84447339D01*
X129100000Y-84552661D01*
X129127259Y-84654394D01*
X129179920Y-84745606D01*
X129184314Y-84750000D01*
X128325000Y-84750000D01*
X128325000Y-85222844D01*
X128331401Y-85282372D01*
X128331403Y-85282379D01*
X128381645Y-85417086D01*
X128381649Y-85417093D01*
X128467809Y-85532187D01*
X128467812Y-85532190D01*
X128582906Y-85618350D01*
X128582913Y-85618354D01*
X128717620Y-85668596D01*
X128717627Y-85668598D01*
X128777155Y-85674999D01*
X128777172Y-85675000D01*
X129250000Y-85675000D01*
X129250000Y-84815686D01*
X129254394Y-84820080D01*
X129345606Y-84872741D01*
X129447339Y-84900000D01*
X129552661Y-84900000D01*
X129654394Y-84872741D01*
X129745606Y-84820080D01*
X129750000Y-84815686D01*
X129750000Y-85675000D01*
X130222828Y-85675000D01*
X130222844Y-85674999D01*
X130282372Y-85668598D01*
X130282379Y-85668596D01*
X130417086Y-85618354D01*
X130417093Y-85618350D01*
X130532187Y-85532190D01*
X130532190Y-85532187D01*
X130618350Y-85417093D01*
X130618354Y-85417086D01*
X130668596Y-85282379D01*
X130668598Y-85282372D01*
X130674999Y-85222844D01*
X130675000Y-85222827D01*
X130675000Y-84750000D01*
X129815686Y-84750000D01*
X129820080Y-84745606D01*
X129872741Y-84654394D01*
X129900000Y-84552661D01*
X129900000Y-84447339D01*
X129872741Y-84345606D01*
X129820080Y-84254394D01*
X129815686Y-84250000D01*
X130675000Y-84250000D01*
X130675000Y-83777172D01*
X130674999Y-83777155D01*
X130668598Y-83717627D01*
X130668596Y-83717620D01*
X130618354Y-83582913D01*
X130618350Y-83582906D01*
X130532190Y-83467812D01*
X130447166Y-83404162D01*
X130405296Y-83348228D01*
X130400312Y-83278536D01*
X130421157Y-83232015D01*
X130505378Y-83116096D01*
X130589379Y-82951235D01*
X130646555Y-82775264D01*
X130675500Y-82592514D01*
X130675500Y-82407486D01*
X130646555Y-82224736D01*
X130601273Y-82085372D01*
X130589380Y-82048767D01*
X130589379Y-82048764D01*
X130512984Y-81898832D01*
X130505378Y-81883904D01*
X130396621Y-81734213D01*
X130265787Y-81603379D01*
X130261576Y-81600319D01*
X130218909Y-81544994D01*
X130212926Y-81475381D01*
X130245529Y-81413585D01*
X130261570Y-81399684D01*
X130265787Y-81396621D01*
X130396621Y-81265787D01*
X130505378Y-81116096D01*
X130589379Y-80951235D01*
X130646555Y-80775264D01*
X130675500Y-80592514D01*
X130675500Y-80407486D01*
X130646555Y-80224736D01*
X130589379Y-80048765D01*
X130589379Y-80048764D01*
X130505377Y-79883903D01*
X130396621Y-79734213D01*
X130265787Y-79603379D01*
X130261576Y-79600319D01*
X130218909Y-79544994D01*
X130212926Y-79475381D01*
X130245529Y-79413585D01*
X130261570Y-79399684D01*
X130265787Y-79396621D01*
X130396621Y-79265787D01*
X130505378Y-79116096D01*
X130589379Y-78951235D01*
X130646555Y-78775264D01*
X130675500Y-78592514D01*
X130675500Y-78407486D01*
X130646555Y-78224736D01*
X130589379Y-78048765D01*
X130589379Y-78048764D01*
X130580496Y-78031331D01*
X130567600Y-77962662D01*
X130593876Y-77897921D01*
X130603291Y-77887364D01*
X132133838Y-76356819D01*
X132160765Y-76342115D01*
X132186584Y-76325523D01*
X132192784Y-76324631D01*
X132195161Y-76323334D01*
X132221519Y-76320500D01*
X132276453Y-76320500D01*
X132343492Y-76340185D01*
X132376769Y-76371614D01*
X132411842Y-76419887D01*
X132469892Y-76499788D01*
X132620213Y-76650109D01*
X132792182Y-76775050D01*
X132800946Y-76779516D01*
X132851742Y-76827491D01*
X132868536Y-76895312D01*
X132845998Y-76961447D01*
X132800946Y-77000484D01*
X132792182Y-77004949D01*
X132620213Y-77129890D01*
X132469890Y-77280213D01*
X132344951Y-77452179D01*
X132248444Y-77641585D01*
X132248443Y-77641587D01*
X132248443Y-77641588D01*
X132218347Y-77734213D01*
X132182753Y-77843760D01*
X132149500Y-78053713D01*
X132149500Y-78266286D01*
X132182753Y-78476239D01*
X132248444Y-78678414D01*
X132344951Y-78867820D01*
X132469890Y-79039786D01*
X132620213Y-79190109D01*
X132792182Y-79315050D01*
X132800946Y-79319516D01*
X132851742Y-79367491D01*
X132868536Y-79435312D01*
X132845998Y-79501447D01*
X132800946Y-79540484D01*
X132792182Y-79544949D01*
X132620213Y-79669890D01*
X132469890Y-79820213D01*
X132344951Y-79992179D01*
X132248444Y-80181585D01*
X132182753Y-80383760D01*
X132149500Y-80593713D01*
X132149500Y-80806286D01*
X132172457Y-80951235D01*
X132182754Y-81016243D01*
X132239395Y-81190566D01*
X132248444Y-81218414D01*
X132344951Y-81407820D01*
X132469890Y-81579786D01*
X132620213Y-81730109D01*
X132792182Y-81855050D01*
X132800946Y-81859516D01*
X132851742Y-81907491D01*
X132868536Y-81975312D01*
X132845998Y-82041447D01*
X132800946Y-82080484D01*
X132792182Y-82084949D01*
X132620213Y-82209890D01*
X132469890Y-82360213D01*
X132344951Y-82532179D01*
X132248444Y-82721585D01*
X132182753Y-82923760D01*
X132163691Y-83044114D01*
X132149500Y-83133713D01*
X132149500Y-83346287D01*
X132157472Y-83396621D01*
X132182735Y-83556127D01*
X132182754Y-83556243D01*
X132212098Y-83646555D01*
X132248444Y-83758414D01*
X132344951Y-83947820D01*
X132469890Y-84119786D01*
X132620213Y-84270109D01*
X132792182Y-84395050D01*
X132800946Y-84399516D01*
X132851742Y-84447491D01*
X132868536Y-84515312D01*
X132845998Y-84581447D01*
X132800946Y-84620484D01*
X132792182Y-84624949D01*
X132620213Y-84749890D01*
X132469890Y-84900213D01*
X132344951Y-85072179D01*
X132248444Y-85261585D01*
X132182753Y-85463760D01*
X132149500Y-85673713D01*
X132149500Y-85886286D01*
X132182753Y-86096239D01*
X132248444Y-86298414D01*
X132344951Y-86487820D01*
X132469890Y-86659786D01*
X132620213Y-86810109D01*
X132792179Y-86935048D01*
X132792181Y-86935049D01*
X132792184Y-86935051D01*
X132801493Y-86939794D01*
X132852290Y-86987766D01*
X132869087Y-87055587D01*
X132846552Y-87121722D01*
X132801505Y-87160760D01*
X132792446Y-87165376D01*
X132792440Y-87165380D01*
X132738282Y-87204727D01*
X132738282Y-87204728D01*
X133370591Y-87837037D01*
X133307007Y-87854075D01*
X133192993Y-87919901D01*
X133099901Y-88012993D01*
X133034075Y-88127007D01*
X133017037Y-88190591D01*
X132384728Y-87558282D01*
X132384727Y-87558282D01*
X132345380Y-87612439D01*
X132248904Y-87801782D01*
X132183242Y-88003869D01*
X132183242Y-88003872D01*
X132150000Y-88213753D01*
X132150000Y-88426246D01*
X132183242Y-88636127D01*
X132183242Y-88636130D01*
X132248904Y-88838217D01*
X132345375Y-89027550D01*
X132384728Y-89081716D01*
X133017037Y-88449408D01*
X133034075Y-88512993D01*
X133099901Y-88627007D01*
X133192993Y-88720099D01*
X133307007Y-88785925D01*
X133370590Y-88802962D01*
X132738282Y-89435269D01*
X132738282Y-89435270D01*
X132792452Y-89474626D01*
X132792451Y-89474626D01*
X132801495Y-89479234D01*
X132852292Y-89527208D01*
X132869087Y-89595029D01*
X132846550Y-89661164D01*
X132801499Y-89700202D01*
X132792182Y-89704949D01*
X132620213Y-89829890D01*
X132469890Y-89980213D01*
X132344951Y-90152180D01*
X132304385Y-90231795D01*
X132256410Y-90282591D01*
X132193900Y-90299500D01*
X131285764Y-90299500D01*
X131218725Y-90279815D01*
X131172970Y-90227011D01*
X131169582Y-90218833D01*
X131118797Y-90082671D01*
X131118793Y-90082664D01*
X131032547Y-89967455D01*
X131032544Y-89967452D01*
X130917335Y-89881206D01*
X130917328Y-89881202D01*
X130782482Y-89830908D01*
X130782483Y-89830908D01*
X130722883Y-89824501D01*
X130722881Y-89824500D01*
X130722873Y-89824500D01*
X130722864Y-89824500D01*
X129277129Y-89824500D01*
X129277123Y-89824501D01*
X129217516Y-89830908D01*
X129082671Y-89881202D01*
X129082664Y-89881206D01*
X128967455Y-89967452D01*
X128967452Y-89967455D01*
X128881206Y-90082664D01*
X128881202Y-90082671D01*
X128830418Y-90218833D01*
X128788547Y-90274767D01*
X128723083Y-90299184D01*
X128714236Y-90299500D01*
X125785764Y-90299500D01*
X125718725Y-90279815D01*
X125672970Y-90227011D01*
X125669582Y-90218833D01*
X125618797Y-90082671D01*
X125618793Y-90082664D01*
X125532547Y-89967455D01*
X125532544Y-89967452D01*
X125417335Y-89881206D01*
X125417330Y-89881203D01*
X125281166Y-89830417D01*
X125225233Y-89788545D01*
X125200816Y-89723081D01*
X125200500Y-89714235D01*
X125200500Y-73821744D01*
X125220185Y-73754705D01*
X125251615Y-73721426D01*
X125347215Y-73651969D01*
X125347215Y-73651968D01*
X125347219Y-73651966D01*
X125491966Y-73507219D01*
X125491968Y-73507215D01*
X125491971Y-73507213D01*
X125572319Y-73396621D01*
X125612287Y-73341610D01*
X125705220Y-73159219D01*
X125768477Y-72964534D01*
X125800500Y-72762352D01*
X125800500Y-72557648D01*
X125768477Y-72355465D01*
X125726556Y-72226446D01*
X125705220Y-72160781D01*
X125705218Y-72160778D01*
X125705218Y-72160776D01*
X125664553Y-72080968D01*
X125612287Y-71978390D01*
X125604556Y-71967749D01*
X125491971Y-71812786D01*
X125347213Y-71668028D01*
X125181613Y-71547715D01*
X125181612Y-71547714D01*
X125181610Y-71547713D01*
X125088995Y-71500523D01*
X124999223Y-71454781D01*
X124804534Y-71391522D01*
X124629995Y-71363878D01*
X124602352Y-71359500D01*
X124397648Y-71359500D01*
X124373329Y-71363351D01*
X124195465Y-71391522D01*
X124000776Y-71454781D01*
X123818386Y-71547715D01*
X123652786Y-71668028D01*
X123508028Y-71812786D01*
X123387715Y-71978386D01*
X123294781Y-72160776D01*
X123231522Y-72355465D01*
X123199500Y-72557648D01*
X123199500Y-72762351D01*
X123231522Y-72964534D01*
X123294781Y-73159223D01*
X123349079Y-73265786D01*
X123375776Y-73318183D01*
X123387715Y-73341613D01*
X123508028Y-73507213D01*
X123652784Y-73651969D01*
X123748385Y-73721426D01*
X123791051Y-73776755D01*
X123799500Y-73821744D01*
X123799500Y-89714235D01*
X123779815Y-89781274D01*
X123727011Y-89827029D01*
X123718834Y-89830417D01*
X123582669Y-89881203D01*
X123582664Y-89881206D01*
X123467455Y-89967452D01*
X123467452Y-89967455D01*
X123381206Y-90082664D01*
X123381202Y-90082671D01*
X123330908Y-90217517D01*
X123324501Y-90277116D01*
X123324500Y-90277135D01*
X123324500Y-91722870D01*
X123324501Y-91722876D01*
X123330908Y-91782483D01*
X123381202Y-91917328D01*
X123381206Y-91917335D01*
X123467452Y-92032544D01*
X123467455Y-92032547D01*
X123552938Y-92096540D01*
X123594809Y-92152473D01*
X123599793Y-92222165D01*
X123578946Y-92268690D01*
X123495051Y-92384163D01*
X123411084Y-92548956D01*
X123411083Y-92548959D01*
X123353933Y-92724852D01*
X123325000Y-92907526D01*
X123325000Y-93092473D01*
X123353933Y-93275147D01*
X123411083Y-93451040D01*
X123411084Y-93451043D01*
X123495050Y-93615834D01*
X123510015Y-93636430D01*
X124100000Y-93046445D01*
X124100000Y-93052661D01*
X124127259Y-93154394D01*
X124179920Y-93245606D01*
X124254394Y-93320080D01*
X124345606Y-93372741D01*
X124447339Y-93400000D01*
X124453553Y-93400000D01*
X123863568Y-93989983D01*
X123863568Y-93989984D01*
X123884165Y-94004949D01*
X124048956Y-94088915D01*
X124048959Y-94088916D01*
X124224852Y-94146066D01*
X124407527Y-94175000D01*
X124592473Y-94175000D01*
X124775147Y-94146066D01*
X124951040Y-94088916D01*
X124951043Y-94088915D01*
X125115836Y-94004947D01*
X125115845Y-94004942D01*
X125136430Y-93989984D01*
X125136431Y-93989983D01*
X124546448Y-93400000D01*
X124552661Y-93400000D01*
X124654394Y-93372741D01*
X124745606Y-93320080D01*
X124820080Y-93245606D01*
X124872741Y-93154394D01*
X124900000Y-93052661D01*
X124900000Y-93046447D01*
X125489983Y-93636430D01*
X125489984Y-93636430D01*
X125504942Y-93615845D01*
X125504947Y-93615836D01*
X125588915Y-93451043D01*
X125588916Y-93451040D01*
X125646066Y-93275147D01*
X125675000Y-93092473D01*
X125675000Y-92907526D01*
X125646066Y-92724852D01*
X125588916Y-92548959D01*
X125588915Y-92548956D01*
X125504947Y-92384161D01*
X125421054Y-92268691D01*
X125397574Y-92202884D01*
X125413400Y-92134831D01*
X125447058Y-92096542D01*
X125532546Y-92032546D01*
X125618796Y-91917331D01*
X125669091Y-91782483D01*
X125669090Y-91782483D01*
X125669582Y-91781167D01*
X125711453Y-91725233D01*
X125776917Y-91700816D01*
X125785764Y-91700500D01*
X128714236Y-91700500D01*
X128781275Y-91720185D01*
X128827030Y-91772989D01*
X128830418Y-91781167D01*
X128881202Y-91917328D01*
X128881206Y-91917335D01*
X128967452Y-92032544D01*
X128967455Y-92032547D01*
X129052938Y-92096540D01*
X129094809Y-92152473D01*
X129099793Y-92222165D01*
X129078946Y-92268690D01*
X128995051Y-92384163D01*
X128911084Y-92548956D01*
X128911083Y-92548959D01*
X128853933Y-92724852D01*
X128825000Y-92907526D01*
X128825000Y-93092473D01*
X128853933Y-93275147D01*
X128911083Y-93451040D01*
X128911084Y-93451043D01*
X128995050Y-93615834D01*
X129010015Y-93636430D01*
X129600000Y-93046445D01*
X129600000Y-93052661D01*
X129627259Y-93154394D01*
X129679920Y-93245606D01*
X129754394Y-93320080D01*
X129845606Y-93372741D01*
X129947339Y-93400000D01*
X129953553Y-93400000D01*
X129363568Y-93989983D01*
X129363568Y-93989984D01*
X129384165Y-94004949D01*
X129548956Y-94088915D01*
X129548959Y-94088916D01*
X129724852Y-94146066D01*
X129907527Y-94175000D01*
X130092473Y-94175000D01*
X130275147Y-94146066D01*
X130451040Y-94088916D01*
X130451043Y-94088915D01*
X130615836Y-94004947D01*
X130615845Y-94004942D01*
X130636430Y-93989984D01*
X130636431Y-93989983D01*
X130046448Y-93400000D01*
X130052661Y-93400000D01*
X130154394Y-93372741D01*
X130245606Y-93320080D01*
X130320080Y-93245606D01*
X130372741Y-93154394D01*
X130400000Y-93052661D01*
X130400000Y-93046447D01*
X130989983Y-93636430D01*
X130989984Y-93636430D01*
X131004942Y-93615845D01*
X131004947Y-93615836D01*
X131088915Y-93451043D01*
X131088916Y-93451040D01*
X131146066Y-93275147D01*
X131175000Y-93092473D01*
X131175000Y-92907526D01*
X131146066Y-92724852D01*
X131088916Y-92548959D01*
X131088915Y-92548956D01*
X131004947Y-92384161D01*
X130921054Y-92268691D01*
X130897574Y-92202884D01*
X130913400Y-92134831D01*
X130947058Y-92096542D01*
X131032546Y-92032546D01*
X131118796Y-91917331D01*
X131169091Y-91782483D01*
X131169090Y-91782483D01*
X131169582Y-91781167D01*
X131211453Y-91725233D01*
X131276917Y-91700816D01*
X131285764Y-91700500D01*
X132379242Y-91700500D01*
X132446281Y-91720185D01*
X132466923Y-91736819D01*
X132620213Y-91890109D01*
X132792179Y-92015048D01*
X132792181Y-92015049D01*
X132792184Y-92015051D01*
X132981588Y-92111557D01*
X133183757Y-92177246D01*
X133393713Y-92210500D01*
X133393714Y-92210500D01*
X133606286Y-92210500D01*
X133606287Y-92210500D01*
X133816243Y-92177246D01*
X134018412Y-92111557D01*
X134207816Y-92015051D01*
X134262876Y-91975048D01*
X134379786Y-91890109D01*
X134379788Y-91890106D01*
X134379792Y-91890104D01*
X134530104Y-91739792D01*
X134623229Y-91611614D01*
X134678558Y-91568949D01*
X134723547Y-91560500D01*
X138518481Y-91560500D01*
X138547921Y-91569144D01*
X138577908Y-91575668D01*
X138582923Y-91579422D01*
X138585520Y-91580185D01*
X138606162Y-91596819D01*
X138723181Y-91713838D01*
X138756666Y-91775161D01*
X138759500Y-91801519D01*
X138759500Y-95776452D01*
X138739815Y-95843491D01*
X138708385Y-95876770D01*
X138580213Y-95969890D01*
X138429890Y-96120213D01*
X138304949Y-96292182D01*
X138300202Y-96301499D01*
X138252227Y-96352293D01*
X138184405Y-96369087D01*
X138118271Y-96346548D01*
X138079234Y-96301495D01*
X138074626Y-96292452D01*
X138035270Y-96238282D01*
X138035269Y-96238282D01*
X137402962Y-96870590D01*
X137385925Y-96807007D01*
X137320099Y-96692993D01*
X137227007Y-96599901D01*
X137112993Y-96534075D01*
X137049409Y-96517037D01*
X137681716Y-95884728D01*
X137627550Y-95845375D01*
X137438217Y-95748904D01*
X137236129Y-95683242D01*
X137026246Y-95650000D01*
X136813754Y-95650000D01*
X136603872Y-95683242D01*
X136603869Y-95683242D01*
X136401782Y-95748904D01*
X136212439Y-95845380D01*
X136158282Y-95884727D01*
X136158282Y-95884728D01*
X136790591Y-96517037D01*
X136727007Y-96534075D01*
X136612993Y-96599901D01*
X136519901Y-96692993D01*
X136454075Y-96807007D01*
X136437037Y-96870591D01*
X135766818Y-96200372D01*
X135733333Y-96139049D01*
X135733330Y-96139036D01*
X135730499Y-96126015D01*
X135730499Y-96102128D01*
X135724091Y-96042517D01*
X135695926Y-95967002D01*
X135673798Y-95907673D01*
X135673793Y-95907664D01*
X135587547Y-95792455D01*
X135587544Y-95792452D01*
X135472335Y-95706206D01*
X135472328Y-95706202D01*
X135337482Y-95655908D01*
X135337483Y-95655908D01*
X135277883Y-95649501D01*
X135277881Y-95649500D01*
X135277873Y-95649500D01*
X135277865Y-95649500D01*
X134071519Y-95649500D01*
X134004480Y-95629815D01*
X133983838Y-95613181D01*
X133326546Y-94955888D01*
X133326545Y-94955887D01*
X133211807Y-94879222D01*
X133084332Y-94826421D01*
X133084322Y-94826418D01*
X132948996Y-94799500D01*
X132948994Y-94799500D01*
X132948993Y-94799500D01*
X122841519Y-94799500D01*
X122774480Y-94779815D01*
X122753838Y-94763181D01*
X122236819Y-94246162D01*
X122222115Y-94219234D01*
X122205523Y-94193416D01*
X122204631Y-94187215D01*
X122203334Y-94184839D01*
X122200500Y-94158481D01*
X122200500Y-71341519D01*
X122220185Y-71274480D01*
X122236819Y-71253838D01*
X122753838Y-70736819D01*
X122815161Y-70703334D01*
X122841519Y-70700500D01*
X125658481Y-70700500D01*
X125725520Y-70720185D01*
G37*
%TD.AperFunction*%
%TA.AperFunction,Conductor*%
G36*
X151605520Y-61100185D02*
G01*
X151626162Y-61116819D01*
X153920391Y-63411048D01*
X153953876Y-63472371D01*
X153948892Y-63542063D01*
X153907020Y-63597996D01*
X153841556Y-63622413D01*
X153773283Y-63607561D01*
X153759828Y-63599049D01*
X153616096Y-63494622D01*
X153451235Y-63410620D01*
X153451232Y-63410619D01*
X153275265Y-63353445D01*
X153136097Y-63331403D01*
X153092514Y-63324500D01*
X152907486Y-63324500D01*
X152863915Y-63331401D01*
X152724734Y-63353445D01*
X152548767Y-63410619D01*
X152548764Y-63410620D01*
X152383903Y-63494622D01*
X152299500Y-63555945D01*
X152234213Y-63603379D01*
X152234211Y-63603381D01*
X152234210Y-63603381D01*
X152103381Y-63734210D01*
X152103381Y-63734211D01*
X152103379Y-63734213D01*
X152069318Y-63781094D01*
X151994622Y-63883903D01*
X151910620Y-64048764D01*
X151910619Y-64048767D01*
X151853445Y-64224734D01*
X151824500Y-64407486D01*
X151824500Y-64592513D01*
X151853445Y-64775265D01*
X151910619Y-64951232D01*
X151910620Y-64951235D01*
X151994622Y-65116096D01*
X152103379Y-65265787D01*
X152234213Y-65396621D01*
X152383904Y-65505378D01*
X152464763Y-65546577D01*
X152548764Y-65589379D01*
X152548767Y-65589380D01*
X152636750Y-65617967D01*
X152724736Y-65646555D01*
X152907486Y-65675500D01*
X152907487Y-65675500D01*
X153092513Y-65675500D01*
X153092514Y-65675500D01*
X153275264Y-65646555D01*
X153451235Y-65589379D01*
X153616096Y-65505378D01*
X153765787Y-65396621D01*
X153896621Y-65265787D01*
X153899680Y-65261576D01*
X153955006Y-65218909D01*
X154024619Y-65212926D01*
X154086415Y-65245529D01*
X154100315Y-65261570D01*
X154103379Y-65265787D01*
X154234213Y-65396621D01*
X154383904Y-65505378D01*
X154464763Y-65546577D01*
X154548764Y-65589379D01*
X154548767Y-65589380D01*
X154636750Y-65617967D01*
X154724736Y-65646555D01*
X154907486Y-65675500D01*
X154907487Y-65675500D01*
X155092513Y-65675500D01*
X155092514Y-65675500D01*
X155275264Y-65646555D01*
X155451235Y-65589379D01*
X155616096Y-65505378D01*
X155765787Y-65396621D01*
X155896621Y-65265787D01*
X155899680Y-65261576D01*
X155955006Y-65218909D01*
X156024619Y-65212926D01*
X156086415Y-65245529D01*
X156086993Y-65246094D01*
X156094291Y-65253279D01*
X156103379Y-65265787D01*
X156234213Y-65396621D01*
X156255888Y-65412368D01*
X156262493Y-65418871D01*
X156275148Y-65441623D01*
X156291050Y-65462243D01*
X156293309Y-65474272D01*
X156296456Y-65479930D01*
X156295928Y-65488217D01*
X156299500Y-65507235D01*
X156299500Y-65931006D01*
X156299500Y-66068994D01*
X156299500Y-66068996D01*
X156299499Y-66068996D01*
X156326418Y-66204322D01*
X156326421Y-66204332D01*
X156379222Y-66331807D01*
X156455887Y-66446545D01*
X156455888Y-66446546D01*
X160763181Y-70753838D01*
X160796666Y-70815161D01*
X160799500Y-70841519D01*
X160799500Y-74908480D01*
X160779815Y-74975519D01*
X160763181Y-74996161D01*
X156455888Y-79303453D01*
X156455887Y-79303454D01*
X156434980Y-79334744D01*
X156414167Y-79365894D01*
X156396635Y-79392131D01*
X156379223Y-79418191D01*
X156326421Y-79545667D01*
X156326418Y-79545677D01*
X156299500Y-79681004D01*
X156299500Y-88492764D01*
X156279815Y-88559803D01*
X156262493Y-88581128D01*
X156255885Y-88587632D01*
X156234213Y-88603379D01*
X156103379Y-88734213D01*
X156094296Y-88746713D01*
X156086993Y-88753904D01*
X156064864Y-88765763D01*
X156044981Y-88781094D01*
X156034597Y-88781985D01*
X156025410Y-88786909D01*
X156000382Y-88784921D01*
X155975367Y-88787069D01*
X155966147Y-88782203D01*
X155955759Y-88781379D01*
X155935780Y-88766177D01*
X155913574Y-88754459D01*
X155900406Y-88739263D01*
X155900155Y-88739072D01*
X155900092Y-88738901D01*
X155899686Y-88738432D01*
X155896621Y-88734213D01*
X155765787Y-88603379D01*
X155616096Y-88494622D01*
X155451235Y-88410620D01*
X155451232Y-88410619D01*
X155275265Y-88353445D01*
X155136097Y-88331403D01*
X155092514Y-88324500D01*
X154907486Y-88324500D01*
X154863915Y-88331401D01*
X154724734Y-88353445D01*
X154548767Y-88410619D01*
X154548764Y-88410620D01*
X154383903Y-88494622D01*
X154339825Y-88526647D01*
X154234213Y-88603379D01*
X154234211Y-88603381D01*
X154234210Y-88603381D01*
X154103381Y-88734210D01*
X154100314Y-88738432D01*
X154044981Y-88781094D01*
X153975367Y-88787069D01*
X153913574Y-88754459D01*
X153913007Y-88753904D01*
X153905703Y-88746713D01*
X153896621Y-88734213D01*
X153765787Y-88603379D01*
X153744114Y-88587632D01*
X153737507Y-88581128D01*
X153724849Y-88558372D01*
X153708948Y-88537750D01*
X153706689Y-88525724D01*
X153703544Y-88520069D01*
X153704071Y-88511782D01*
X153700500Y-88492764D01*
X153700500Y-88431004D01*
X153673581Y-88295677D01*
X153673580Y-88295676D01*
X153673580Y-88295672D01*
X153656391Y-88254174D01*
X153620778Y-88168195D01*
X153620771Y-88168182D01*
X153544114Y-88053458D01*
X153544111Y-88053454D01*
X153505130Y-88014474D01*
X153505127Y-88014469D01*
X153266545Y-87775887D01*
X153151807Y-87699222D01*
X153024332Y-87646421D01*
X153024322Y-87646418D01*
X152888996Y-87619500D01*
X152888994Y-87619500D01*
X152888993Y-87619500D01*
X149973547Y-87619500D01*
X149906508Y-87599815D01*
X149873230Y-87568385D01*
X149780108Y-87440213D01*
X149780107Y-87440211D01*
X149629786Y-87289890D01*
X149457820Y-87164951D01*
X149449600Y-87160763D01*
X149449054Y-87160485D01*
X149398259Y-87112512D01*
X149381463Y-87044692D01*
X149403999Y-86978556D01*
X149449054Y-86939515D01*
X149457816Y-86935051D01*
X149479789Y-86919086D01*
X149629786Y-86810109D01*
X149629788Y-86810106D01*
X149629792Y-86810104D01*
X149780104Y-86659792D01*
X149780106Y-86659788D01*
X149780109Y-86659786D01*
X149905048Y-86487820D01*
X149905047Y-86487820D01*
X149905051Y-86487816D01*
X150001557Y-86298412D01*
X150067246Y-86096243D01*
X150100500Y-85886287D01*
X150100500Y-85673713D01*
X150067246Y-85463757D01*
X150001557Y-85261588D01*
X149905051Y-85072184D01*
X149905049Y-85072181D01*
X149905048Y-85072179D01*
X149780109Y-84900213D01*
X149629786Y-84749890D01*
X149457817Y-84624949D01*
X149448504Y-84620204D01*
X149397707Y-84572230D01*
X149380912Y-84504409D01*
X149403449Y-84438274D01*
X149448507Y-84399232D01*
X149457555Y-84394622D01*
X149511716Y-84355270D01*
X149511717Y-84355270D01*
X148879408Y-83722962D01*
X148942993Y-83705925D01*
X149057007Y-83640099D01*
X149150099Y-83547007D01*
X149215925Y-83432993D01*
X149232962Y-83369409D01*
X149865270Y-84001717D01*
X149865270Y-84001716D01*
X149904622Y-83947554D01*
X150001095Y-83758217D01*
X150066757Y-83556130D01*
X150066757Y-83556127D01*
X150100000Y-83346246D01*
X150100000Y-83133753D01*
X150066757Y-82923872D01*
X150066757Y-82923869D01*
X150001095Y-82721782D01*
X149904624Y-82532449D01*
X149865270Y-82478282D01*
X149865269Y-82478282D01*
X149232962Y-83110590D01*
X149215925Y-83047007D01*
X149150099Y-82932993D01*
X149057007Y-82839901D01*
X148942993Y-82774075D01*
X148879409Y-82757037D01*
X149511716Y-82124728D01*
X149457547Y-82085373D01*
X149457547Y-82085372D01*
X149448500Y-82080763D01*
X149397706Y-82032788D01*
X149380912Y-81964966D01*
X149403451Y-81898832D01*
X149448508Y-81859793D01*
X149457816Y-81855051D01*
X149561370Y-81779815D01*
X149629786Y-81730109D01*
X149629788Y-81730106D01*
X149629792Y-81730104D01*
X149780104Y-81579792D01*
X149780106Y-81579788D01*
X149780109Y-81579786D01*
X149900860Y-81413585D01*
X149905051Y-81407816D01*
X150001557Y-81218412D01*
X150067246Y-81016243D01*
X150100500Y-80806287D01*
X150100500Y-80593713D01*
X150067246Y-80383757D01*
X150001557Y-80181588D01*
X149905051Y-79992184D01*
X149905049Y-79992181D01*
X149905048Y-79992179D01*
X149780109Y-79820213D01*
X149629786Y-79669890D01*
X149457820Y-79544951D01*
X149457115Y-79544591D01*
X149449054Y-79540485D01*
X149398259Y-79492512D01*
X149381463Y-79424692D01*
X149403999Y-79358556D01*
X149449054Y-79319515D01*
X149457816Y-79315051D01*
X149525623Y-79265787D01*
X149629786Y-79190109D01*
X149629788Y-79190106D01*
X149629792Y-79190104D01*
X149780104Y-79039792D01*
X149780106Y-79039788D01*
X149780109Y-79039786D01*
X149905048Y-78867820D01*
X149905047Y-78867820D01*
X149905051Y-78867816D01*
X150001557Y-78678412D01*
X150067246Y-78476243D01*
X150100500Y-78266287D01*
X150100500Y-78053713D01*
X150075715Y-77897227D01*
X150084670Y-77827933D01*
X150110504Y-77790151D01*
X152163838Y-75736819D01*
X152225161Y-75703334D01*
X152251519Y-75700500D01*
X156568996Y-75700500D01*
X156660040Y-75682389D01*
X156704328Y-75673580D01*
X156783838Y-75640646D01*
X156831807Y-75620777D01*
X156831808Y-75620776D01*
X156831811Y-75620775D01*
X156946543Y-75544114D01*
X157544114Y-74946543D01*
X157620775Y-74831811D01*
X157673580Y-74704328D01*
X157682389Y-74660040D01*
X157700500Y-74568996D01*
X157700500Y-73548498D01*
X157720185Y-73481459D01*
X157772989Y-73435704D01*
X157842147Y-73425760D01*
X157905703Y-73454785D01*
X157923764Y-73474183D01*
X157967454Y-73532546D01*
X157988763Y-73548498D01*
X158082664Y-73618793D01*
X158082671Y-73618797D01*
X158217517Y-73669091D01*
X158217516Y-73669091D01*
X158224444Y-73669835D01*
X158277127Y-73675500D01*
X159722872Y-73675499D01*
X159782483Y-73669091D01*
X159917331Y-73618796D01*
X160032546Y-73532546D01*
X160118796Y-73417331D01*
X160169091Y-73282483D01*
X160175500Y-73222873D01*
X160175499Y-71777128D01*
X160169091Y-71717517D01*
X160162376Y-71699514D01*
X160118797Y-71582671D01*
X160118793Y-71582664D01*
X160032547Y-71467455D01*
X160032544Y-71467452D01*
X159917335Y-71381206D01*
X159917328Y-71381202D01*
X159782482Y-71330908D01*
X159782483Y-71330908D01*
X159722883Y-71324501D01*
X159722881Y-71324500D01*
X159722873Y-71324500D01*
X159722864Y-71324500D01*
X158277129Y-71324500D01*
X158277123Y-71324501D01*
X158217516Y-71330908D01*
X158082671Y-71381202D01*
X158082664Y-71381206D01*
X157967455Y-71467452D01*
X157903758Y-71552539D01*
X157847823Y-71594410D01*
X157778132Y-71599393D01*
X157731607Y-71578545D01*
X157616099Y-71494624D01*
X157616098Y-71494623D01*
X157616096Y-71494622D01*
X157537902Y-71454780D01*
X157451235Y-71410620D01*
X157451232Y-71410619D01*
X157275265Y-71353445D01*
X157132972Y-71330908D01*
X157092514Y-71324500D01*
X156907486Y-71324500D01*
X156867028Y-71330908D01*
X156724734Y-71353445D01*
X156548767Y-71410619D01*
X156548764Y-71410620D01*
X156383903Y-71494622D01*
X156310828Y-71547715D01*
X156234213Y-71603379D01*
X156234211Y-71603381D01*
X156234210Y-71603381D01*
X156103381Y-71734210D01*
X156100314Y-71738432D01*
X156044981Y-71781094D01*
X155975367Y-71787069D01*
X155913574Y-71754459D01*
X155913007Y-71753904D01*
X155905703Y-71746713D01*
X155896621Y-71734213D01*
X155765787Y-71603379D01*
X155744114Y-71587632D01*
X155737507Y-71581128D01*
X155724849Y-71558372D01*
X155708948Y-71537750D01*
X155706689Y-71525724D01*
X155703544Y-71520069D01*
X155704071Y-71511782D01*
X155700500Y-71492764D01*
X155700500Y-70931004D01*
X155673581Y-70795677D01*
X155673580Y-70795676D01*
X155673580Y-70795672D01*
X155656252Y-70753838D01*
X155620778Y-70668195D01*
X155620774Y-70668188D01*
X155606140Y-70646287D01*
X155581222Y-70608994D01*
X155581222Y-70608993D01*
X155544115Y-70553458D01*
X155544109Y-70553451D01*
X154986545Y-69995887D01*
X154871807Y-69919222D01*
X154744332Y-69866421D01*
X154744322Y-69866418D01*
X154608996Y-69839500D01*
X154608994Y-69839500D01*
X154608993Y-69839500D01*
X149973547Y-69839500D01*
X149906508Y-69819815D01*
X149873230Y-69788385D01*
X149780108Y-69660213D01*
X149780107Y-69660211D01*
X149629786Y-69509890D01*
X149457820Y-69384951D01*
X149457115Y-69384591D01*
X149449054Y-69380485D01*
X149398259Y-69332512D01*
X149381463Y-69264692D01*
X149403999Y-69198556D01*
X149449054Y-69159515D01*
X149457816Y-69155051D01*
X149479789Y-69139086D01*
X149629786Y-69030109D01*
X149629788Y-69030106D01*
X149629792Y-69030104D01*
X149780104Y-68879792D01*
X149780106Y-68879788D01*
X149780109Y-68879786D01*
X149905048Y-68707820D01*
X149905047Y-68707820D01*
X149905051Y-68707816D01*
X150001557Y-68518412D01*
X150067246Y-68316243D01*
X150100500Y-68106287D01*
X150100500Y-67893713D01*
X150067246Y-67683757D01*
X150001557Y-67481588D01*
X149905051Y-67292184D01*
X149905049Y-67292181D01*
X149905048Y-67292179D01*
X149780109Y-67120213D01*
X149629786Y-66969890D01*
X149457820Y-66844951D01*
X149457115Y-66844591D01*
X149449054Y-66840485D01*
X149398259Y-66792512D01*
X149381463Y-66724692D01*
X149403999Y-66658556D01*
X149449054Y-66619515D01*
X149457816Y-66615051D01*
X149479789Y-66599086D01*
X149629786Y-66490109D01*
X149629788Y-66490106D01*
X149629792Y-66490104D01*
X149780104Y-66339792D01*
X149780106Y-66339788D01*
X149780109Y-66339786D01*
X149905048Y-66167820D01*
X149905047Y-66167820D01*
X149905051Y-66167816D01*
X150001557Y-65978412D01*
X150067246Y-65776243D01*
X150100500Y-65566287D01*
X150100500Y-65353713D01*
X150067246Y-65143757D01*
X150001557Y-64941588D01*
X149905051Y-64752184D01*
X149905049Y-64752181D01*
X149905048Y-64752179D01*
X149780109Y-64580213D01*
X149629786Y-64429890D01*
X149457820Y-64304951D01*
X149457115Y-64304591D01*
X149449054Y-64300485D01*
X149398259Y-64252512D01*
X149381463Y-64184692D01*
X149403999Y-64118556D01*
X149449054Y-64079515D01*
X149457816Y-64075051D01*
X149493997Y-64048764D01*
X149629786Y-63950109D01*
X149629788Y-63950106D01*
X149629792Y-63950104D01*
X149780104Y-63799792D01*
X149780106Y-63799788D01*
X149780109Y-63799786D01*
X149905048Y-63627820D01*
X149905047Y-63627820D01*
X149905051Y-63627816D01*
X150001557Y-63438412D01*
X150067246Y-63236243D01*
X150100500Y-63026287D01*
X150100500Y-62813713D01*
X150067246Y-62603757D01*
X150001557Y-62401588D01*
X149905051Y-62212184D01*
X149905049Y-62212181D01*
X149905048Y-62212179D01*
X149780109Y-62040213D01*
X149629786Y-61889890D01*
X149457820Y-61764951D01*
X149457115Y-61764591D01*
X149449054Y-61760485D01*
X149398259Y-61712512D01*
X149381463Y-61644692D01*
X149403999Y-61578556D01*
X149449054Y-61539515D01*
X149457816Y-61535051D01*
X149495010Y-61508028D01*
X149629786Y-61410109D01*
X149629788Y-61410106D01*
X149629792Y-61410104D01*
X149780104Y-61259792D01*
X149873229Y-61131614D01*
X149928558Y-61088949D01*
X149973547Y-61080500D01*
X151538481Y-61080500D01*
X151605520Y-61100185D01*
G37*
%TD.AperFunction*%
%TA.AperFunction,Conductor*%
G36*
X163442539Y-29020185D02*
G01*
X163488294Y-29072989D01*
X163499500Y-29124500D01*
X163499500Y-102375500D01*
X163479815Y-102442539D01*
X163427011Y-102488294D01*
X163375500Y-102499500D01*
X119624500Y-102499500D01*
X119557461Y-102479815D01*
X119511706Y-102427011D01*
X119500500Y-102375500D01*
X119500500Y-94568996D01*
X120799499Y-94568996D01*
X120826418Y-94704322D01*
X120826421Y-94704332D01*
X120879222Y-94831807D01*
X120955887Y-94946545D01*
X122053454Y-96044112D01*
X122168192Y-96120777D01*
X122295667Y-96173578D01*
X122295672Y-96173580D01*
X122295676Y-96173580D01*
X122295677Y-96173581D01*
X122431003Y-96200500D01*
X122431006Y-96200500D01*
X122431007Y-96200500D01*
X132538481Y-96200500D01*
X132605520Y-96220185D01*
X132626162Y-96236819D01*
X132993181Y-96603837D01*
X133026666Y-96665160D01*
X133029500Y-96691518D01*
X133029500Y-97897870D01*
X133029501Y-97897876D01*
X133035908Y-97957483D01*
X133086202Y-98092328D01*
X133086206Y-98092335D01*
X133172452Y-98207544D01*
X133172455Y-98207547D01*
X133287664Y-98293793D01*
X133287671Y-98293797D01*
X133332618Y-98310561D01*
X133422517Y-98344091D01*
X133482127Y-98350500D01*
X133555500Y-98350499D01*
X133622538Y-98370183D01*
X133668294Y-98422986D01*
X133679500Y-98474499D01*
X133679500Y-98811006D01*
X133679500Y-98948994D01*
X133679500Y-98948996D01*
X133679499Y-98948996D01*
X133706418Y-99084322D01*
X133706421Y-99084332D01*
X133759222Y-99211807D01*
X133835887Y-99326545D01*
X133835888Y-99326546D01*
X134455886Y-99946542D01*
X134553456Y-100044112D01*
X134553459Y-100044115D01*
X134668182Y-100120771D01*
X134668186Y-100120773D01*
X134668189Y-100120775D01*
X134742866Y-100151707D01*
X134795671Y-100173580D01*
X134822591Y-100178934D01*
X134919630Y-100198237D01*
X134931006Y-100200500D01*
X134931007Y-100200500D01*
X146068996Y-100200500D01*
X146177412Y-100178934D01*
X146204328Y-100173580D01*
X146268069Y-100147177D01*
X146331807Y-100120777D01*
X146331808Y-100120776D01*
X146331811Y-100120775D01*
X146446543Y-100044114D01*
X151353838Y-95136819D01*
X151415161Y-95103334D01*
X151441519Y-95100500D01*
X155718996Y-95100500D01*
X155810040Y-95082389D01*
X155854328Y-95073580D01*
X155918069Y-95047177D01*
X155981807Y-95020777D01*
X155981808Y-95020776D01*
X155981811Y-95020775D01*
X156096543Y-94944114D01*
X157544113Y-93496543D01*
X157544114Y-93496542D01*
X157620775Y-93381811D01*
X157673580Y-93254328D01*
X157700500Y-93118993D01*
X157700500Y-90547664D01*
X157720185Y-90480625D01*
X157772989Y-90434870D01*
X157842147Y-90424926D01*
X157905703Y-90453951D01*
X157923767Y-90473353D01*
X157967813Y-90532190D01*
X158082906Y-90618350D01*
X158082913Y-90618354D01*
X158217620Y-90668596D01*
X158217627Y-90668598D01*
X158277155Y-90674999D01*
X158277172Y-90675000D01*
X158750000Y-90675000D01*
X158750000Y-89815686D01*
X158754394Y-89820080D01*
X158845606Y-89872741D01*
X158947339Y-89900000D01*
X159052661Y-89900000D01*
X159154394Y-89872741D01*
X159245606Y-89820080D01*
X159250000Y-89815686D01*
X159250000Y-90675000D01*
X159722828Y-90675000D01*
X159722844Y-90674999D01*
X159782372Y-90668598D01*
X159782379Y-90668596D01*
X159917086Y-90618354D01*
X159917093Y-90618350D01*
X160032187Y-90532190D01*
X160032190Y-90532187D01*
X160118350Y-90417093D01*
X160118354Y-90417086D01*
X160168596Y-90282379D01*
X160168598Y-90282372D01*
X160174999Y-90222844D01*
X160175000Y-90222827D01*
X160175000Y-89750000D01*
X159315686Y-89750000D01*
X159320080Y-89745606D01*
X159372741Y-89654394D01*
X159400000Y-89552661D01*
X159400000Y-89447339D01*
X159372741Y-89345606D01*
X159320080Y-89254394D01*
X159315686Y-89250000D01*
X160175000Y-89250000D01*
X160175000Y-88777172D01*
X160174999Y-88777155D01*
X160168598Y-88717627D01*
X160168596Y-88717620D01*
X160118354Y-88582913D01*
X160118350Y-88582906D01*
X160032190Y-88467812D01*
X160032187Y-88467809D01*
X159917093Y-88381649D01*
X159917086Y-88381645D01*
X159782379Y-88331403D01*
X159782372Y-88331401D01*
X159722844Y-88325000D01*
X159250000Y-88325000D01*
X159250000Y-89184314D01*
X159245606Y-89179920D01*
X159154394Y-89127259D01*
X159052661Y-89100000D01*
X158947339Y-89100000D01*
X158845606Y-89127259D01*
X158754394Y-89179920D01*
X158750000Y-89184314D01*
X158750000Y-88325000D01*
X158277155Y-88325000D01*
X158217627Y-88331401D01*
X158217620Y-88331403D01*
X158082913Y-88381645D01*
X158082906Y-88381649D01*
X157967813Y-88467809D01*
X157923767Y-88526647D01*
X157867833Y-88568518D01*
X157798141Y-88573502D01*
X157736818Y-88540017D01*
X157703334Y-88478693D01*
X157700500Y-88452336D01*
X157700500Y-80091519D01*
X157720185Y-80024480D01*
X157736819Y-80003838D01*
X162044112Y-75696545D01*
X162044114Y-75696543D01*
X162120775Y-75581811D01*
X162136391Y-75544112D01*
X162173578Y-75454332D01*
X162173580Y-75454328D01*
X162200500Y-75318994D01*
X162200500Y-75181006D01*
X162200500Y-70431007D01*
X162200500Y-70431004D01*
X162173581Y-70295677D01*
X162173580Y-70295676D01*
X162173580Y-70295672D01*
X162120775Y-70168189D01*
X162108288Y-70149501D01*
X162108287Y-70149500D01*
X162044114Y-70053457D01*
X162044112Y-70053454D01*
X157736819Y-65746161D01*
X157703334Y-65684838D01*
X157700500Y-65658480D01*
X157700500Y-65547664D01*
X157720185Y-65480625D01*
X157772989Y-65434870D01*
X157842147Y-65424926D01*
X157905703Y-65453951D01*
X157923767Y-65473353D01*
X157967813Y-65532190D01*
X158082906Y-65618350D01*
X158082913Y-65618354D01*
X158217620Y-65668596D01*
X158217627Y-65668598D01*
X158277155Y-65674999D01*
X158277172Y-65675000D01*
X158750000Y-65675000D01*
X158750000Y-64815686D01*
X158754394Y-64820080D01*
X158845606Y-64872741D01*
X158947339Y-64900000D01*
X159052661Y-64900000D01*
X159154394Y-64872741D01*
X159245606Y-64820080D01*
X159250000Y-64815686D01*
X159250000Y-65675000D01*
X159722828Y-65675000D01*
X159722844Y-65674999D01*
X159782372Y-65668598D01*
X159782379Y-65668596D01*
X159917086Y-65618354D01*
X159917093Y-65618350D01*
X160032187Y-65532190D01*
X160032190Y-65532187D01*
X160118350Y-65417093D01*
X160118354Y-65417086D01*
X160168596Y-65282379D01*
X160168598Y-65282372D01*
X160174999Y-65222844D01*
X160175000Y-65222827D01*
X160175000Y-64750000D01*
X159315686Y-64750000D01*
X159320080Y-64745606D01*
X159372741Y-64654394D01*
X159400000Y-64552661D01*
X159400000Y-64447339D01*
X159372741Y-64345606D01*
X159320080Y-64254394D01*
X159315686Y-64250000D01*
X160175000Y-64250000D01*
X160175000Y-63777172D01*
X160174999Y-63777155D01*
X160168598Y-63717627D01*
X160168596Y-63717620D01*
X160118354Y-63582913D01*
X160118350Y-63582906D01*
X160032190Y-63467812D01*
X160032187Y-63467809D01*
X159917093Y-63381649D01*
X159917086Y-63381645D01*
X159782379Y-63331403D01*
X159782372Y-63331401D01*
X159722844Y-63325000D01*
X159250000Y-63325000D01*
X159250000Y-64184314D01*
X159245606Y-64179920D01*
X159154394Y-64127259D01*
X159052661Y-64100000D01*
X158947339Y-64100000D01*
X158845606Y-64127259D01*
X158754394Y-64179920D01*
X158750000Y-64184314D01*
X158750000Y-63325000D01*
X158277155Y-63325000D01*
X158217627Y-63331401D01*
X158217620Y-63331403D01*
X158082913Y-63381645D01*
X158082906Y-63381649D01*
X157967813Y-63467809D01*
X157904164Y-63552833D01*
X157848230Y-63594704D01*
X157778538Y-63599688D01*
X157732013Y-63578841D01*
X157616096Y-63494622D01*
X157451235Y-63410620D01*
X157451232Y-63410619D01*
X157275265Y-63353445D01*
X157136097Y-63331403D01*
X157092514Y-63324500D01*
X156907486Y-63324500D01*
X156863915Y-63331401D01*
X156724734Y-63353445D01*
X156548767Y-63410619D01*
X156548764Y-63410620D01*
X156383903Y-63494622D01*
X156299500Y-63555945D01*
X156234213Y-63603379D01*
X156234211Y-63603381D01*
X156234210Y-63603381D01*
X156103381Y-63734210D01*
X156100314Y-63738432D01*
X156044981Y-63781094D01*
X155975367Y-63787069D01*
X155913574Y-63754459D01*
X155913007Y-63753904D01*
X155905703Y-63746713D01*
X155896621Y-63734213D01*
X155765787Y-63603379D01*
X155744114Y-63587632D01*
X155737507Y-63581128D01*
X155724849Y-63558372D01*
X155708948Y-63537750D01*
X155706689Y-63525724D01*
X155703544Y-63520069D01*
X155704071Y-63511782D01*
X155700500Y-63492764D01*
X155700500Y-63431004D01*
X155673581Y-63295676D01*
X155673580Y-63295674D01*
X155673580Y-63295672D01*
X155661794Y-63267219D01*
X155661793Y-63267217D01*
X155648964Y-63236244D01*
X155648964Y-63236243D01*
X155633960Y-63200021D01*
X155620778Y-63168195D01*
X155620771Y-63168182D01*
X155544115Y-63053459D01*
X155516942Y-63026286D01*
X155446542Y-62955886D01*
X154673837Y-62183181D01*
X152326546Y-59835888D01*
X152326545Y-59835887D01*
X152211807Y-59759222D01*
X152084332Y-59706421D01*
X152084322Y-59706418D01*
X151948996Y-59679500D01*
X151948994Y-59679500D01*
X151948993Y-59679500D01*
X149973547Y-59679500D01*
X149906508Y-59659815D01*
X149873230Y-59628385D01*
X149780108Y-59500213D01*
X149780107Y-59500211D01*
X149629786Y-59349890D01*
X149457820Y-59224951D01*
X149457115Y-59224591D01*
X149449054Y-59220485D01*
X149398259Y-59172512D01*
X149381463Y-59104692D01*
X149403999Y-59038556D01*
X149449054Y-58999515D01*
X149457816Y-58995051D01*
X149479789Y-58979086D01*
X149629786Y-58870109D01*
X149629788Y-58870106D01*
X149629792Y-58870104D01*
X149780104Y-58719792D01*
X149780106Y-58719788D01*
X149780109Y-58719786D01*
X149905048Y-58547820D01*
X149905047Y-58547820D01*
X149905051Y-58547816D01*
X150001557Y-58358412D01*
X150067246Y-58156243D01*
X150100500Y-57946287D01*
X150100500Y-57733713D01*
X150067246Y-57523757D01*
X150001557Y-57321588D01*
X149905051Y-57132184D01*
X149905049Y-57132181D01*
X149905048Y-57132179D01*
X149780109Y-56960213D01*
X149629786Y-56809890D01*
X149457820Y-56684951D01*
X149457115Y-56684591D01*
X149449054Y-56680485D01*
X149398259Y-56632512D01*
X149381463Y-56564692D01*
X149403999Y-56498556D01*
X149449054Y-56459515D01*
X149457816Y-56455051D01*
X149544138Y-56392335D01*
X149629786Y-56330109D01*
X149629788Y-56330106D01*
X149629792Y-56330104D01*
X149780104Y-56179792D01*
X149780106Y-56179788D01*
X149780109Y-56179786D01*
X149905048Y-56007820D01*
X149905047Y-56007820D01*
X149905051Y-56007816D01*
X150001557Y-55818412D01*
X150067246Y-55616243D01*
X150100500Y-55406287D01*
X150100500Y-55193713D01*
X150067246Y-54983757D01*
X150001557Y-54781588D01*
X149905051Y-54592184D01*
X149905049Y-54592181D01*
X149905048Y-54592179D01*
X149780109Y-54420213D01*
X149629786Y-54269890D01*
X149457820Y-54144951D01*
X149268414Y-54048444D01*
X149268413Y-54048443D01*
X149268412Y-54048443D01*
X149066243Y-53982754D01*
X149066241Y-53982753D01*
X149066240Y-53982753D01*
X148904957Y-53957208D01*
X148856287Y-53949500D01*
X148643713Y-53949500D01*
X148595042Y-53957208D01*
X148433760Y-53982753D01*
X148231585Y-54048444D01*
X148042179Y-54144951D01*
X147870213Y-54269890D01*
X147719890Y-54420213D01*
X147594951Y-54592179D01*
X147498444Y-54781585D01*
X147432753Y-54983760D01*
X147399500Y-55193713D01*
X147399500Y-55406286D01*
X147432753Y-55616239D01*
X147498444Y-55818414D01*
X147594951Y-56007820D01*
X147719890Y-56179786D01*
X147870213Y-56330109D01*
X148042182Y-56455050D01*
X148050946Y-56459516D01*
X148101742Y-56507491D01*
X148118536Y-56575312D01*
X148095998Y-56641447D01*
X148050946Y-56680484D01*
X148042182Y-56684949D01*
X147870213Y-56809890D01*
X147719890Y-56960213D01*
X147594951Y-57132179D01*
X147498444Y-57321585D01*
X147432753Y-57523760D01*
X147399500Y-57733713D01*
X147399500Y-57946286D01*
X147432753Y-58156239D01*
X147498444Y-58358414D01*
X147594951Y-58547820D01*
X147719890Y-58719786D01*
X147870213Y-58870109D01*
X148042182Y-58995050D01*
X148050946Y-58999516D01*
X148101742Y-59047491D01*
X148118536Y-59115312D01*
X148095998Y-59181447D01*
X148050946Y-59220484D01*
X148042182Y-59224949D01*
X147870213Y-59349890D01*
X147719890Y-59500213D01*
X147594951Y-59672179D01*
X147498444Y-59861585D01*
X147432753Y-60063760D01*
X147399500Y-60273713D01*
X147399500Y-60486286D01*
X147432753Y-60696239D01*
X147498444Y-60898414D01*
X147594951Y-61087820D01*
X147719890Y-61259786D01*
X147870213Y-61410109D01*
X148042182Y-61535050D01*
X148050946Y-61539516D01*
X148101742Y-61587491D01*
X148118536Y-61655312D01*
X148095998Y-61721447D01*
X148050946Y-61760484D01*
X148042182Y-61764949D01*
X147870213Y-61889890D01*
X147719890Y-62040213D01*
X147594951Y-62212179D01*
X147498444Y-62401585D01*
X147432753Y-62603760D01*
X147400954Y-62804534D01*
X147399500Y-62813713D01*
X147399500Y-63026287D01*
X147403804Y-63053459D01*
X147430210Y-63220185D01*
X147432754Y-63236243D01*
X147489412Y-63410619D01*
X147498444Y-63438414D01*
X147594951Y-63627820D01*
X147719890Y-63799786D01*
X147870213Y-63950109D01*
X148042182Y-64075050D01*
X148050946Y-64079516D01*
X148101742Y-64127491D01*
X148118536Y-64195312D01*
X148095998Y-64261447D01*
X148050946Y-64300484D01*
X148042182Y-64304949D01*
X147870213Y-64429890D01*
X147719892Y-64580211D01*
X147665997Y-64654394D01*
X147626770Y-64708385D01*
X147571442Y-64751051D01*
X147526453Y-64759500D01*
X145201519Y-64759500D01*
X145134480Y-64739815D01*
X145113838Y-64723181D01*
X142236819Y-61846162D01*
X142203334Y-61784839D01*
X142200500Y-61758481D01*
X142200500Y-45431004D01*
X142173581Y-45295677D01*
X142173580Y-45295676D01*
X142173580Y-45295672D01*
X142173578Y-45295667D01*
X142120777Y-45168192D01*
X142044112Y-45053454D01*
X138384411Y-41393753D01*
X147650000Y-41393753D01*
X147650000Y-41606246D01*
X147683242Y-41816127D01*
X147683242Y-41816130D01*
X147748904Y-42018217D01*
X147845375Y-42207550D01*
X147884728Y-42261716D01*
X148600000Y-41546445D01*
X148600000Y-41552661D01*
X148627259Y-41654394D01*
X148679920Y-41745606D01*
X148754394Y-41820080D01*
X148845606Y-41872741D01*
X148947339Y-41900000D01*
X148953554Y-41900000D01*
X148238282Y-42615269D01*
X148238282Y-42615270D01*
X148292449Y-42654624D01*
X148481782Y-42751095D01*
X148683870Y-42816757D01*
X148893754Y-42850000D01*
X149106246Y-42850000D01*
X149316127Y-42816757D01*
X149316130Y-42816757D01*
X149518217Y-42751095D01*
X149707554Y-42654622D01*
X149761716Y-42615270D01*
X149761717Y-42615270D01*
X149046446Y-41900000D01*
X149052661Y-41900000D01*
X149154394Y-41872741D01*
X149245606Y-41820080D01*
X149320080Y-41745606D01*
X149372741Y-41654394D01*
X149400000Y-41552661D01*
X149400000Y-41546446D01*
X150115270Y-42261717D01*
X150115270Y-42261716D01*
X150154622Y-42207554D01*
X150251095Y-42018217D01*
X150316757Y-41816130D01*
X150316757Y-41816127D01*
X150350000Y-41606246D01*
X150350000Y-41393753D01*
X150316757Y-41183872D01*
X150316757Y-41183869D01*
X150251095Y-40981782D01*
X150154624Y-40792449D01*
X150115270Y-40738282D01*
X150115269Y-40738282D01*
X149400000Y-41453552D01*
X149400000Y-41447339D01*
X149372741Y-41345606D01*
X149320080Y-41254394D01*
X149245606Y-41179920D01*
X149154394Y-41127259D01*
X149052661Y-41100000D01*
X149046447Y-41100000D01*
X149761716Y-40384728D01*
X149707550Y-40345375D01*
X149518217Y-40248904D01*
X149316129Y-40183242D01*
X149106246Y-40150000D01*
X148893754Y-40150000D01*
X148683872Y-40183242D01*
X148683869Y-40183242D01*
X148481782Y-40248904D01*
X148292439Y-40345380D01*
X148238282Y-40384727D01*
X148238282Y-40384728D01*
X148953554Y-41100000D01*
X148947339Y-41100000D01*
X148845606Y-41127259D01*
X148754394Y-41179920D01*
X148679920Y-41254394D01*
X148627259Y-41345606D01*
X148600000Y-41447339D01*
X148600000Y-41453554D01*
X147884728Y-40738282D01*
X147884727Y-40738282D01*
X147845380Y-40792439D01*
X147748904Y-40981782D01*
X147683242Y-41183869D01*
X147683242Y-41183872D01*
X147650000Y-41393753D01*
X138384411Y-41393753D01*
X137946545Y-40955887D01*
X137831807Y-40879222D01*
X137704332Y-40826421D01*
X137704322Y-40826418D01*
X137568996Y-40799500D01*
X137568994Y-40799500D01*
X137568993Y-40799500D01*
X135223547Y-40799500D01*
X135156508Y-40779815D01*
X135123230Y-40748385D01*
X135030108Y-40620213D01*
X135030107Y-40620211D01*
X134879786Y-40469890D01*
X134707820Y-40344951D01*
X134518414Y-40248444D01*
X134518413Y-40248443D01*
X134518412Y-40248443D01*
X134316243Y-40182754D01*
X134316241Y-40182753D01*
X134316240Y-40182753D01*
X134154957Y-40157208D01*
X134106287Y-40149500D01*
X133893713Y-40149500D01*
X133845042Y-40157208D01*
X133683760Y-40182753D01*
X133481585Y-40248444D01*
X133292179Y-40344951D01*
X133120213Y-40469890D01*
X132969890Y-40620213D01*
X132844951Y-40792179D01*
X132748444Y-40981585D01*
X132682753Y-41183760D01*
X132649500Y-41393713D01*
X132649500Y-41606286D01*
X132682735Y-41816127D01*
X132682754Y-41816243D01*
X132709968Y-41900000D01*
X132748444Y-42018414D01*
X132844951Y-42207820D01*
X132969890Y-42379786D01*
X133120213Y-42530109D01*
X133292179Y-42655048D01*
X133292181Y-42655049D01*
X133292184Y-42655051D01*
X133481588Y-42751557D01*
X133683757Y-42817246D01*
X133893713Y-42850500D01*
X133893714Y-42850500D01*
X134106286Y-42850500D01*
X134106287Y-42850500D01*
X134316243Y-42817246D01*
X134518412Y-42751557D01*
X134707816Y-42655051D01*
X134762572Y-42615269D01*
X134879786Y-42530109D01*
X134879788Y-42530106D01*
X134879792Y-42530104D01*
X135030104Y-42379792D01*
X135123229Y-42251614D01*
X135178558Y-42208949D01*
X135223547Y-42200500D01*
X137158481Y-42200500D01*
X137225520Y-42220185D01*
X137246162Y-42236819D01*
X140763181Y-45753838D01*
X140796666Y-45815161D01*
X140799500Y-45841519D01*
X140799500Y-62031006D01*
X140799500Y-62168994D01*
X140799500Y-62168996D01*
X140799499Y-62168996D01*
X140826418Y-62304322D01*
X140826421Y-62304332D01*
X140879222Y-62431807D01*
X140955887Y-62546545D01*
X144413454Y-66004112D01*
X144528192Y-66080777D01*
X144655667Y-66133578D01*
X144655672Y-66133580D01*
X144655676Y-66133580D01*
X144655677Y-66133581D01*
X144791003Y-66160500D01*
X144791006Y-66160500D01*
X144791007Y-66160500D01*
X147526453Y-66160500D01*
X147593492Y-66180185D01*
X147626769Y-66211614D01*
X147661842Y-66259887D01*
X147719892Y-66339788D01*
X147870213Y-66490109D01*
X148042182Y-66615050D01*
X148050946Y-66619516D01*
X148101742Y-66667491D01*
X148118536Y-66735312D01*
X148095998Y-66801447D01*
X148050946Y-66840484D01*
X148042182Y-66844949D01*
X147870213Y-66969890D01*
X147719890Y-67120213D01*
X147594951Y-67292179D01*
X147498444Y-67481585D01*
X147432753Y-67683760D01*
X147399500Y-67893713D01*
X147399500Y-68106286D01*
X147432753Y-68316239D01*
X147498444Y-68518414D01*
X147594951Y-68707820D01*
X147719890Y-68879786D01*
X147870213Y-69030109D01*
X148042182Y-69155050D01*
X148050946Y-69159516D01*
X148101742Y-69207491D01*
X148118536Y-69275312D01*
X148095998Y-69341447D01*
X148050946Y-69380484D01*
X148042182Y-69384949D01*
X147870213Y-69509890D01*
X147719890Y-69660213D01*
X147594951Y-69832179D01*
X147498444Y-70021585D01*
X147432753Y-70223760D01*
X147421363Y-70295677D01*
X147399500Y-70433713D01*
X147399500Y-70646287D01*
X147402970Y-70668195D01*
X147423159Y-70795667D01*
X147432754Y-70856243D01*
X147458240Y-70934682D01*
X147498444Y-71058414D01*
X147594951Y-71247820D01*
X147719890Y-71419786D01*
X147870213Y-71570109D01*
X148042182Y-71695050D01*
X148050946Y-71699516D01*
X148101742Y-71747491D01*
X148118536Y-71815312D01*
X148095998Y-71881447D01*
X148050946Y-71920484D01*
X148042182Y-71924949D01*
X147870213Y-72049890D01*
X147719890Y-72200213D01*
X147594951Y-72372179D01*
X147498444Y-72561585D01*
X147432753Y-72763760D01*
X147422958Y-72825606D01*
X147399500Y-72973713D01*
X147399500Y-73186287D01*
X147432754Y-73396243D01*
X147495508Y-73589380D01*
X147498444Y-73598414D01*
X147594951Y-73787820D01*
X147719890Y-73959786D01*
X147870213Y-74110109D01*
X148042182Y-74235050D01*
X148050946Y-74239516D01*
X148101742Y-74287491D01*
X148118536Y-74355312D01*
X148095998Y-74421447D01*
X148050946Y-74460484D01*
X148042182Y-74464949D01*
X147870213Y-74589890D01*
X147719890Y-74740213D01*
X147594951Y-74912179D01*
X147498444Y-75101585D01*
X147432753Y-75303760D01*
X147430340Y-75318996D01*
X147399500Y-75513713D01*
X147399500Y-75726287D01*
X147432754Y-75936243D01*
X147486177Y-76100662D01*
X147498444Y-76138414D01*
X147594951Y-76327820D01*
X147719890Y-76499786D01*
X147870213Y-76650109D01*
X148042182Y-76775050D01*
X148050946Y-76779516D01*
X148101742Y-76827491D01*
X148118536Y-76895312D01*
X148095998Y-76961447D01*
X148050946Y-77000484D01*
X148042182Y-77004949D01*
X147870213Y-77129890D01*
X147719890Y-77280213D01*
X147594951Y-77452179D01*
X147498444Y-77641585D01*
X147498443Y-77641587D01*
X147498443Y-77641588D01*
X147468347Y-77734213D01*
X147432753Y-77843760D01*
X147399500Y-78053713D01*
X147399500Y-78266286D01*
X147432753Y-78476239D01*
X147498444Y-78678414D01*
X147594951Y-78867820D01*
X147719890Y-79039786D01*
X147870213Y-79190109D01*
X148042182Y-79315050D01*
X148050946Y-79319516D01*
X148101742Y-79367491D01*
X148118536Y-79435312D01*
X148095998Y-79501447D01*
X148050946Y-79540484D01*
X148042182Y-79544949D01*
X147870213Y-79669890D01*
X147719892Y-79820211D01*
X147673619Y-79883903D01*
X147626770Y-79948385D01*
X147571442Y-79991051D01*
X147526453Y-79999500D01*
X144231003Y-79999500D01*
X144122590Y-80021065D01*
X144122589Y-80021065D01*
X144095671Y-80026420D01*
X143968190Y-80079224D01*
X143853454Y-80155887D01*
X141455890Y-82553451D01*
X141455884Y-82553458D01*
X141409032Y-82623579D01*
X141409032Y-82623580D01*
X141379223Y-82668191D01*
X141379222Y-82668193D01*
X141326421Y-82795667D01*
X141326418Y-82795677D01*
X141299500Y-82931004D01*
X141299500Y-95776452D01*
X141279815Y-95843491D01*
X141248385Y-95876770D01*
X141120213Y-95969890D01*
X140969890Y-96120213D01*
X140844949Y-96292182D01*
X140840484Y-96300946D01*
X140792509Y-96351742D01*
X140724688Y-96368536D01*
X140658553Y-96345998D01*
X140619516Y-96300946D01*
X140615050Y-96292182D01*
X140490109Y-96120213D01*
X140339786Y-95969890D01*
X140211615Y-95876770D01*
X140168949Y-95821441D01*
X140160500Y-95776452D01*
X140160500Y-91391004D01*
X140138934Y-91282591D01*
X140133580Y-91255671D01*
X140112313Y-91204328D01*
X140080776Y-91128190D01*
X140004112Y-91013454D01*
X139306545Y-90315887D01*
X139191807Y-90239222D01*
X139064332Y-90186421D01*
X139064322Y-90186418D01*
X138928996Y-90159500D01*
X138928994Y-90159500D01*
X138928993Y-90159500D01*
X134723547Y-90159500D01*
X134656508Y-90139815D01*
X134623230Y-90108385D01*
X134530108Y-89980213D01*
X134530107Y-89980211D01*
X134379786Y-89829890D01*
X134207817Y-89704949D01*
X134198504Y-89700204D01*
X134147707Y-89652230D01*
X134130912Y-89584409D01*
X134153449Y-89518274D01*
X134198507Y-89479232D01*
X134207555Y-89474622D01*
X134261716Y-89435270D01*
X134261717Y-89435270D01*
X133629408Y-88802962D01*
X133692993Y-88785925D01*
X133807007Y-88720099D01*
X133900099Y-88627007D01*
X133965925Y-88512993D01*
X133982962Y-88449409D01*
X134615270Y-89081717D01*
X134615270Y-89081716D01*
X134654622Y-89027554D01*
X134751095Y-88838217D01*
X134816757Y-88636130D01*
X134816757Y-88636127D01*
X134850000Y-88426246D01*
X134850000Y-88213753D01*
X134816757Y-88003872D01*
X134816757Y-88003869D01*
X134751095Y-87801782D01*
X134654624Y-87612449D01*
X134615270Y-87558282D01*
X134615269Y-87558282D01*
X133982962Y-88190590D01*
X133965925Y-88127007D01*
X133900099Y-88012993D01*
X133807007Y-87919901D01*
X133692993Y-87854075D01*
X133629409Y-87837037D01*
X134261716Y-87204728D01*
X134207547Y-87165373D01*
X134207547Y-87165372D01*
X134198500Y-87160763D01*
X134147706Y-87112788D01*
X134130912Y-87044966D01*
X134153451Y-86978832D01*
X134198508Y-86939793D01*
X134207816Y-86935051D01*
X134287007Y-86877515D01*
X134379786Y-86810109D01*
X134379788Y-86810106D01*
X134379792Y-86810104D01*
X134530104Y-86659792D01*
X134530106Y-86659788D01*
X134530109Y-86659786D01*
X134655048Y-86487820D01*
X134655047Y-86487820D01*
X134655051Y-86487816D01*
X134751557Y-86298412D01*
X134817246Y-86096243D01*
X134850500Y-85886287D01*
X134850500Y-85673713D01*
X134817246Y-85463757D01*
X134751557Y-85261588D01*
X134655051Y-85072184D01*
X134655049Y-85072181D01*
X134655048Y-85072179D01*
X134530109Y-84900213D01*
X134379786Y-84749890D01*
X134207820Y-84624951D01*
X134207115Y-84624591D01*
X134199054Y-84620485D01*
X134148259Y-84572512D01*
X134131463Y-84504692D01*
X134153999Y-84438556D01*
X134199054Y-84399515D01*
X134207816Y-84395051D01*
X134275872Y-84345606D01*
X134379786Y-84270109D01*
X134379788Y-84270106D01*
X134379792Y-84270104D01*
X134530104Y-84119792D01*
X134530106Y-84119788D01*
X134530109Y-84119786D01*
X134655048Y-83947820D01*
X134655047Y-83947820D01*
X134655051Y-83947816D01*
X134751557Y-83758412D01*
X134817246Y-83556243D01*
X134850500Y-83346287D01*
X134850500Y-83133713D01*
X134817246Y-82923757D01*
X134751557Y-82721588D01*
X134655051Y-82532184D01*
X134655049Y-82532181D01*
X134655048Y-82532179D01*
X134530109Y-82360213D01*
X134379786Y-82209890D01*
X134207820Y-82084951D01*
X134199600Y-82080763D01*
X134199054Y-82080485D01*
X134148259Y-82032512D01*
X134131463Y-81964692D01*
X134153999Y-81898556D01*
X134199054Y-81859515D01*
X134207816Y-81855051D01*
X134310323Y-81780576D01*
X134379786Y-81730109D01*
X134379788Y-81730106D01*
X134379792Y-81730104D01*
X134530104Y-81579792D01*
X134530106Y-81579788D01*
X134530109Y-81579786D01*
X134650860Y-81413585D01*
X134655051Y-81407816D01*
X134751557Y-81218412D01*
X134817246Y-81016243D01*
X134850500Y-80806287D01*
X134850500Y-80593713D01*
X134817246Y-80383757D01*
X134751557Y-80181588D01*
X134655051Y-79992184D01*
X134655049Y-79992181D01*
X134655048Y-79992179D01*
X134530109Y-79820213D01*
X134379786Y-79669890D01*
X134207820Y-79544951D01*
X134207115Y-79544591D01*
X134199054Y-79540485D01*
X134148259Y-79492512D01*
X134131463Y-79424692D01*
X134153999Y-79358556D01*
X134199054Y-79319515D01*
X134207816Y-79315051D01*
X134275623Y-79265787D01*
X134379786Y-79190109D01*
X134379788Y-79190106D01*
X134379792Y-79190104D01*
X134530104Y-79039792D01*
X134530106Y-79039788D01*
X134530109Y-79039786D01*
X134655048Y-78867820D01*
X134655047Y-78867820D01*
X134655051Y-78867816D01*
X134751557Y-78678412D01*
X134817246Y-78476243D01*
X134850500Y-78266287D01*
X134850500Y-78053713D01*
X134817246Y-77843757D01*
X134751557Y-77641588D01*
X134655051Y-77452184D01*
X134655049Y-77452181D01*
X134655048Y-77452179D01*
X134530109Y-77280213D01*
X134379786Y-77129890D01*
X134207820Y-77004951D01*
X134207115Y-77004591D01*
X134199054Y-77000485D01*
X134148259Y-76952512D01*
X134131463Y-76884692D01*
X134153999Y-76818556D01*
X134199054Y-76779515D01*
X134207816Y-76775051D01*
X134229789Y-76759086D01*
X134379786Y-76650109D01*
X134379788Y-76650106D01*
X134379792Y-76650104D01*
X134530104Y-76499792D01*
X134530106Y-76499788D01*
X134530109Y-76499786D01*
X134655048Y-76327820D01*
X134655047Y-76327820D01*
X134655051Y-76327816D01*
X134751557Y-76138412D01*
X134817246Y-75936243D01*
X134850500Y-75726287D01*
X134850500Y-75513713D01*
X134817246Y-75303757D01*
X134751557Y-75101588D01*
X134655051Y-74912184D01*
X134655049Y-74912181D01*
X134655048Y-74912179D01*
X134530109Y-74740213D01*
X134379786Y-74589890D01*
X134207820Y-74464951D01*
X134207115Y-74464591D01*
X134199054Y-74460485D01*
X134148259Y-74412512D01*
X134131463Y-74344692D01*
X134153999Y-74278556D01*
X134199054Y-74239515D01*
X134207816Y-74235051D01*
X134242512Y-74209843D01*
X134379786Y-74110109D01*
X134379788Y-74110106D01*
X134379792Y-74110104D01*
X134530104Y-73959792D01*
X134530106Y-73959788D01*
X134530109Y-73959786D01*
X134655048Y-73787820D01*
X134655047Y-73787820D01*
X134655051Y-73787816D01*
X134751557Y-73598412D01*
X134817246Y-73396243D01*
X134850500Y-73186287D01*
X134850500Y-72973713D01*
X134817246Y-72763757D01*
X134751557Y-72561588D01*
X134655051Y-72372184D01*
X134655049Y-72372181D01*
X134655048Y-72372179D01*
X134530109Y-72200213D01*
X134379786Y-72049890D01*
X134207820Y-71924951D01*
X134207115Y-71924591D01*
X134199054Y-71920485D01*
X134148259Y-71872512D01*
X134131463Y-71804692D01*
X134153999Y-71738556D01*
X134199054Y-71699515D01*
X134207816Y-71695051D01*
X134333993Y-71603379D01*
X134379786Y-71570109D01*
X134379788Y-71570106D01*
X134379792Y-71570104D01*
X134530104Y-71419792D01*
X134530106Y-71419788D01*
X134530109Y-71419786D01*
X134650676Y-71253838D01*
X134655051Y-71247816D01*
X134751557Y-71058412D01*
X134817246Y-70856243D01*
X134850500Y-70646287D01*
X134850500Y-70433713D01*
X134817246Y-70223757D01*
X134751557Y-70021588D01*
X134655051Y-69832184D01*
X134655049Y-69832181D01*
X134655048Y-69832179D01*
X134530109Y-69660213D01*
X134379786Y-69509890D01*
X134207820Y-69384951D01*
X134207115Y-69384591D01*
X134199054Y-69380485D01*
X134148259Y-69332512D01*
X134131463Y-69264692D01*
X134153999Y-69198556D01*
X134199054Y-69159515D01*
X134207816Y-69155051D01*
X134229789Y-69139086D01*
X134379786Y-69030109D01*
X134379788Y-69030106D01*
X134379792Y-69030104D01*
X134530104Y-68879792D01*
X134530106Y-68879788D01*
X134530109Y-68879786D01*
X134655048Y-68707820D01*
X134655047Y-68707820D01*
X134655051Y-68707816D01*
X134751557Y-68518412D01*
X134817246Y-68316243D01*
X134850500Y-68106287D01*
X134850500Y-67893713D01*
X134817246Y-67683757D01*
X134751557Y-67481588D01*
X134655051Y-67292184D01*
X134655049Y-67292181D01*
X134655048Y-67292179D01*
X134530109Y-67120213D01*
X134379786Y-66969890D01*
X134207820Y-66844951D01*
X134207115Y-66844591D01*
X134199054Y-66840485D01*
X134148259Y-66792512D01*
X134131463Y-66724692D01*
X134153999Y-66658556D01*
X134199054Y-66619515D01*
X134207816Y-66615051D01*
X134229789Y-66599086D01*
X134379786Y-66490109D01*
X134379788Y-66490106D01*
X134379792Y-66490104D01*
X134530104Y-66339792D01*
X134530106Y-66339788D01*
X134530109Y-66339786D01*
X134655048Y-66167820D01*
X134655047Y-66167820D01*
X134655051Y-66167816D01*
X134751557Y-65978412D01*
X134817246Y-65776243D01*
X134850500Y-65566287D01*
X134850500Y-65353713D01*
X134817246Y-65143757D01*
X134751557Y-64941588D01*
X134655051Y-64752184D01*
X134655049Y-64752181D01*
X134655048Y-64752179D01*
X134530109Y-64580213D01*
X134379786Y-64429890D01*
X134207820Y-64304951D01*
X134207115Y-64304591D01*
X134199054Y-64300485D01*
X134148259Y-64252512D01*
X134131463Y-64184692D01*
X134153999Y-64118556D01*
X134199054Y-64079515D01*
X134207816Y-64075051D01*
X134243997Y-64048764D01*
X134379786Y-63950109D01*
X134379788Y-63950106D01*
X134379792Y-63950104D01*
X134530104Y-63799792D01*
X134530106Y-63799788D01*
X134530109Y-63799786D01*
X134655048Y-63627820D01*
X134655047Y-63627820D01*
X134655051Y-63627816D01*
X134751557Y-63438412D01*
X134817246Y-63236243D01*
X134850500Y-63026287D01*
X134850500Y-62813713D01*
X134817246Y-62603757D01*
X134751557Y-62401588D01*
X134655051Y-62212184D01*
X134655049Y-62212181D01*
X134655048Y-62212179D01*
X134530109Y-62040213D01*
X134379786Y-61889890D01*
X134207820Y-61764951D01*
X134207115Y-61764591D01*
X134199054Y-61760485D01*
X134148259Y-61712512D01*
X134131463Y-61644692D01*
X134153999Y-61578556D01*
X134199054Y-61539515D01*
X134207816Y-61535051D01*
X134245010Y-61508028D01*
X134379786Y-61410109D01*
X134379788Y-61410106D01*
X134379792Y-61410104D01*
X134530104Y-61259792D01*
X134530106Y-61259788D01*
X134530109Y-61259786D01*
X134655048Y-61087820D01*
X134655047Y-61087820D01*
X134655051Y-61087816D01*
X134751557Y-60898412D01*
X134817246Y-60696243D01*
X134850500Y-60486287D01*
X134850500Y-60273713D01*
X134817246Y-60063757D01*
X134751557Y-59861588D01*
X134655051Y-59672184D01*
X134655049Y-59672181D01*
X134655048Y-59672179D01*
X134530109Y-59500213D01*
X134379786Y-59349890D01*
X134207820Y-59224951D01*
X134207115Y-59224591D01*
X134199054Y-59220485D01*
X134148259Y-59172512D01*
X134131463Y-59104692D01*
X134153999Y-59038556D01*
X134199054Y-58999515D01*
X134207816Y-58995051D01*
X134229789Y-58979086D01*
X134379786Y-58870109D01*
X134379788Y-58870106D01*
X134379792Y-58870104D01*
X134530104Y-58719792D01*
X134530106Y-58719788D01*
X134530109Y-58719786D01*
X134655048Y-58547820D01*
X134655047Y-58547820D01*
X134655051Y-58547816D01*
X134751557Y-58358412D01*
X134817246Y-58156243D01*
X134850500Y-57946287D01*
X134850500Y-57733713D01*
X134817246Y-57523757D01*
X134751557Y-57321588D01*
X134655051Y-57132184D01*
X134655049Y-57132181D01*
X134655048Y-57132179D01*
X134530109Y-56960213D01*
X134416569Y-56846673D01*
X134383084Y-56785350D01*
X134388068Y-56715658D01*
X134429940Y-56659725D01*
X134460915Y-56642810D01*
X134592331Y-56593796D01*
X134707546Y-56507546D01*
X134793796Y-56392331D01*
X134844091Y-56257483D01*
X134850500Y-56197873D01*
X134850499Y-54402128D01*
X134844091Y-54342517D01*
X134793796Y-54207669D01*
X134793795Y-54207668D01*
X134793793Y-54207664D01*
X134707547Y-54092455D01*
X134707544Y-54092452D01*
X134592335Y-54006206D01*
X134592328Y-54006202D01*
X134457482Y-53955908D01*
X134457483Y-53955908D01*
X134397883Y-53949501D01*
X134397881Y-53949500D01*
X134397873Y-53949500D01*
X134397864Y-53949500D01*
X132602129Y-53949500D01*
X132602123Y-53949501D01*
X132542516Y-53955908D01*
X132407671Y-54006202D01*
X132407664Y-54006206D01*
X132292455Y-54092452D01*
X132292452Y-54092455D01*
X132206206Y-54207664D01*
X132206202Y-54207671D01*
X132155908Y-54342517D01*
X132149501Y-54402116D01*
X132149501Y-54402123D01*
X132149500Y-54402135D01*
X132149500Y-56197870D01*
X132149501Y-56197876D01*
X132155908Y-56257483D01*
X132206202Y-56392328D01*
X132206206Y-56392335D01*
X132292452Y-56507544D01*
X132292455Y-56507547D01*
X132407664Y-56593793D01*
X132407671Y-56593797D01*
X132539082Y-56642810D01*
X132595016Y-56684681D01*
X132619433Y-56750145D01*
X132604582Y-56818418D01*
X132583431Y-56846673D01*
X132469889Y-56960215D01*
X132344951Y-57132179D01*
X132248444Y-57321585D01*
X132182753Y-57523760D01*
X132149500Y-57733713D01*
X132149500Y-57946286D01*
X132182753Y-58156239D01*
X132248444Y-58358414D01*
X132344951Y-58547820D01*
X132469890Y-58719786D01*
X132620213Y-58870109D01*
X132792182Y-58995050D01*
X132800946Y-58999516D01*
X132851742Y-59047491D01*
X132868536Y-59115312D01*
X132845998Y-59181447D01*
X132800946Y-59220484D01*
X132792182Y-59224949D01*
X132620213Y-59349890D01*
X132469890Y-59500213D01*
X132344951Y-59672179D01*
X132248444Y-59861585D01*
X132182753Y-60063760D01*
X132149500Y-60273713D01*
X132149500Y-60486286D01*
X132182753Y-60696239D01*
X132248444Y-60898414D01*
X132344951Y-61087820D01*
X132469890Y-61259786D01*
X132620213Y-61410109D01*
X132792182Y-61535050D01*
X132800946Y-61539516D01*
X132851742Y-61587491D01*
X132868536Y-61655312D01*
X132845998Y-61721447D01*
X132800946Y-61760484D01*
X132792182Y-61764949D01*
X132620213Y-61889890D01*
X132469892Y-62040211D01*
X132401573Y-62134247D01*
X132376770Y-62168385D01*
X132321442Y-62211051D01*
X132276453Y-62219500D01*
X131761519Y-62219500D01*
X131694480Y-62199815D01*
X131673838Y-62183181D01*
X131366546Y-61875888D01*
X131366545Y-61875887D01*
X131251807Y-61799222D01*
X131124332Y-61746421D01*
X131124322Y-61746418D01*
X130988996Y-61719500D01*
X130988994Y-61719500D01*
X130988993Y-61719500D01*
X130161744Y-61719500D01*
X130094705Y-61699815D01*
X130061425Y-61668384D01*
X129991969Y-61572784D01*
X129847213Y-61428028D01*
X129681613Y-61307715D01*
X129681612Y-61307714D01*
X129681610Y-61307713D01*
X129587560Y-61259792D01*
X129499223Y-61214781D01*
X129304534Y-61151522D01*
X129129995Y-61123878D01*
X129102352Y-61119500D01*
X128897648Y-61119500D01*
X128873329Y-61123351D01*
X128695465Y-61151522D01*
X128500776Y-61214781D01*
X128318386Y-61307715D01*
X128152786Y-61428028D01*
X128008028Y-61572786D01*
X127887716Y-61738383D01*
X127886548Y-61740291D01*
X127885915Y-61740863D01*
X127884849Y-61742331D01*
X127884540Y-61742107D01*
X127834735Y-61787166D01*
X127780821Y-61799500D01*
X125661744Y-61799500D01*
X125594705Y-61779815D01*
X125561425Y-61748384D01*
X125557027Y-61742331D01*
X125544769Y-61725458D01*
X125491969Y-61652784D01*
X125347213Y-61508028D01*
X125181613Y-61387715D01*
X125181612Y-61387714D01*
X125181610Y-61387713D01*
X125124653Y-61358691D01*
X124999223Y-61294781D01*
X124804534Y-61231522D01*
X124629995Y-61203878D01*
X124602352Y-61199500D01*
X124397648Y-61199500D01*
X124373329Y-61203351D01*
X124195465Y-61231522D01*
X124000776Y-61294781D01*
X123818386Y-61387715D01*
X123652786Y-61508028D01*
X123508028Y-61652786D01*
X123387715Y-61818386D01*
X123294781Y-62000776D01*
X123231522Y-62195465D01*
X123199500Y-62397648D01*
X123199500Y-62602351D01*
X123231522Y-62804534D01*
X123294781Y-62999223D01*
X123356576Y-63120500D01*
X123375081Y-63156819D01*
X123387715Y-63181613D01*
X123508028Y-63347213D01*
X123652786Y-63491971D01*
X123801049Y-63599688D01*
X123818390Y-63612287D01*
X123920126Y-63664124D01*
X124000776Y-63705218D01*
X124000778Y-63705218D01*
X124000781Y-63705220D01*
X124090003Y-63734210D01*
X124195465Y-63768477D01*
X124250363Y-63777172D01*
X124397648Y-63800500D01*
X124397649Y-63800500D01*
X124602351Y-63800500D01*
X124602352Y-63800500D01*
X124804534Y-63768477D01*
X124999219Y-63705220D01*
X125181610Y-63612287D01*
X125284202Y-63537750D01*
X125347213Y-63491971D01*
X125347215Y-63491968D01*
X125347219Y-63491966D01*
X125491966Y-63347219D01*
X125561425Y-63251615D01*
X125616755Y-63208949D01*
X125661744Y-63200500D01*
X127896378Y-63200500D01*
X127963417Y-63220185D01*
X127996696Y-63251615D01*
X128008028Y-63267212D01*
X128008032Y-63267217D01*
X128152786Y-63411971D01*
X128266548Y-63494622D01*
X128318390Y-63532287D01*
X128417749Y-63582913D01*
X128500776Y-63625218D01*
X128500778Y-63625218D01*
X128500781Y-63625220D01*
X128546839Y-63640185D01*
X128695465Y-63688477D01*
X128796557Y-63704488D01*
X128897648Y-63720500D01*
X128897649Y-63720500D01*
X129102351Y-63720500D01*
X129102352Y-63720500D01*
X129304534Y-63688477D01*
X129499219Y-63625220D01*
X129681610Y-63532287D01*
X129775447Y-63464111D01*
X129847213Y-63411971D01*
X129847215Y-63411968D01*
X129847219Y-63411966D01*
X129991966Y-63267219D01*
X130061425Y-63171615D01*
X130116755Y-63128949D01*
X130161744Y-63120500D01*
X130578481Y-63120500D01*
X130645520Y-63140185D01*
X130666162Y-63156819D01*
X130973453Y-63464111D01*
X130973454Y-63464112D01*
X131088192Y-63540777D01*
X131189919Y-63582913D01*
X131215672Y-63593580D01*
X131215676Y-63593580D01*
X131215677Y-63593581D01*
X131351003Y-63620500D01*
X131351006Y-63620500D01*
X131351007Y-63620500D01*
X132276453Y-63620500D01*
X132343492Y-63640185D01*
X132376769Y-63671614D01*
X132401186Y-63705220D01*
X132469892Y-63799788D01*
X132620213Y-63950109D01*
X132792182Y-64075050D01*
X132800946Y-64079516D01*
X132851742Y-64127491D01*
X132868536Y-64195312D01*
X132845998Y-64261447D01*
X132800946Y-64300484D01*
X132792182Y-64304949D01*
X132620213Y-64429890D01*
X132469890Y-64580213D01*
X132344951Y-64752179D01*
X132248444Y-64941585D01*
X132248443Y-64941587D01*
X132248443Y-64941588D01*
X132215598Y-65042672D01*
X132182753Y-65143760D01*
X132166635Y-65245529D01*
X132149500Y-65353713D01*
X132149500Y-65566287D01*
X132153158Y-65589380D01*
X132182753Y-65776239D01*
X132248444Y-65978414D01*
X132344951Y-66167820D01*
X132469890Y-66339786D01*
X132620213Y-66490109D01*
X132792182Y-66615050D01*
X132800946Y-66619516D01*
X132851742Y-66667491D01*
X132868536Y-66735312D01*
X132845998Y-66801447D01*
X132800946Y-66840484D01*
X132792182Y-66844949D01*
X132620213Y-66969890D01*
X132469890Y-67120213D01*
X132344951Y-67292179D01*
X132248444Y-67481585D01*
X132182753Y-67683760D01*
X132149500Y-67893713D01*
X132149500Y-68106286D01*
X132182753Y-68316239D01*
X132248444Y-68518414D01*
X132344951Y-68707820D01*
X132469890Y-68879786D01*
X132620213Y-69030109D01*
X132792182Y-69155050D01*
X132800946Y-69159516D01*
X132851742Y-69207491D01*
X132868536Y-69275312D01*
X132845998Y-69341447D01*
X132800946Y-69380484D01*
X132792182Y-69384949D01*
X132620213Y-69509890D01*
X132469890Y-69660213D01*
X132344951Y-69832179D01*
X132248444Y-70021585D01*
X132182753Y-70223760D01*
X132171363Y-70295677D01*
X132149500Y-70433713D01*
X132149500Y-70646287D01*
X132152970Y-70668195D01*
X132173159Y-70795667D01*
X132182754Y-70856243D01*
X132208240Y-70934682D01*
X132248444Y-71058414D01*
X132344951Y-71247820D01*
X132469890Y-71419786D01*
X132620213Y-71570109D01*
X132792182Y-71695050D01*
X132800946Y-71699516D01*
X132851742Y-71747491D01*
X132868536Y-71815312D01*
X132845998Y-71881447D01*
X132800946Y-71920484D01*
X132792182Y-71924949D01*
X132620213Y-72049890D01*
X132469892Y-72200211D01*
X132415134Y-72275582D01*
X132376770Y-72328385D01*
X132321442Y-72371051D01*
X132276453Y-72379500D01*
X131676005Y-72379500D01*
X131540677Y-72406418D01*
X131540667Y-72406421D01*
X131413192Y-72459222D01*
X131298454Y-72535887D01*
X131298453Y-72535888D01*
X127762181Y-76072161D01*
X127700858Y-76105646D01*
X127631166Y-76100662D01*
X127575233Y-76058790D01*
X127550816Y-75993326D01*
X127550500Y-75984480D01*
X127550500Y-73108689D01*
X127570185Y-73041650D01*
X127622989Y-72995895D01*
X127692147Y-72985951D01*
X127755703Y-73014976D01*
X127792431Y-73070372D01*
X127795243Y-73079028D01*
X127888141Y-73261350D01*
X127888147Y-73261359D01*
X127920523Y-73305921D01*
X127920524Y-73305922D01*
X128600000Y-72626446D01*
X128600000Y-72632661D01*
X128627259Y-72734394D01*
X128679920Y-72825606D01*
X128754394Y-72900080D01*
X128845606Y-72952741D01*
X128947339Y-72980000D01*
X128953553Y-72980000D01*
X128274076Y-73659474D01*
X128318650Y-73691859D01*
X128500968Y-73784755D01*
X128695582Y-73847990D01*
X128897683Y-73880000D01*
X129102317Y-73880000D01*
X129304417Y-73847990D01*
X129499031Y-73784755D01*
X129681349Y-73691859D01*
X129725921Y-73659474D01*
X129046447Y-72980000D01*
X129052661Y-72980000D01*
X129154394Y-72952741D01*
X129245606Y-72900080D01*
X129320080Y-72825606D01*
X129372741Y-72734394D01*
X129400000Y-72632661D01*
X129400000Y-72626448D01*
X130079474Y-73305922D01*
X130079474Y-73305921D01*
X130111859Y-73261349D01*
X130204755Y-73079031D01*
X130267990Y-72884417D01*
X130300000Y-72682317D01*
X130300000Y-72477682D01*
X130267990Y-72275582D01*
X130204755Y-72080968D01*
X130111859Y-71898650D01*
X130079474Y-71854077D01*
X130079474Y-71854076D01*
X129400000Y-72533551D01*
X129400000Y-72527339D01*
X129372741Y-72425606D01*
X129320080Y-72334394D01*
X129245606Y-72259920D01*
X129154394Y-72207259D01*
X129052661Y-72180000D01*
X129046446Y-72180000D01*
X129725922Y-71500524D01*
X129725921Y-71500523D01*
X129681359Y-71468147D01*
X129681350Y-71468141D01*
X129499031Y-71375244D01*
X129304417Y-71312009D01*
X129102317Y-71280000D01*
X128897683Y-71280000D01*
X128695582Y-71312009D01*
X128500968Y-71375244D01*
X128318644Y-71468143D01*
X128274077Y-71500523D01*
X128274077Y-71500524D01*
X128953554Y-72180000D01*
X128947339Y-72180000D01*
X128845606Y-72207259D01*
X128754394Y-72259920D01*
X128679920Y-72334394D01*
X128627259Y-72425606D01*
X128600000Y-72527339D01*
X128600000Y-72533553D01*
X127920524Y-71854077D01*
X127920523Y-71854077D01*
X127888143Y-71898644D01*
X127795244Y-72080968D01*
X127792431Y-72089629D01*
X127752993Y-72147304D01*
X127688634Y-72174502D01*
X127619788Y-72162587D01*
X127568312Y-72115342D01*
X127550500Y-72051310D01*
X127550500Y-70781004D01*
X127523581Y-70645677D01*
X127523580Y-70645676D01*
X127523580Y-70645672D01*
X127485384Y-70553458D01*
X127470778Y-70518195D01*
X127470774Y-70518188D01*
X127439249Y-70471007D01*
X127394114Y-70403457D01*
X127394112Y-70403454D01*
X126446545Y-69455887D01*
X126331807Y-69379222D01*
X126204332Y-69326421D01*
X126204322Y-69326418D01*
X126068996Y-69299500D01*
X126068994Y-69299500D01*
X126068993Y-69299500D01*
X122568994Y-69299500D01*
X122431006Y-69299500D01*
X122431004Y-69299500D01*
X122295677Y-69326418D01*
X122295667Y-69326421D01*
X122168192Y-69379222D01*
X122053454Y-69455887D01*
X120955887Y-70553454D01*
X120879222Y-70668192D01*
X120826421Y-70795667D01*
X120826420Y-70795671D01*
X120826420Y-70795672D01*
X120801890Y-70918994D01*
X120799500Y-70931007D01*
X120799500Y-94431006D01*
X120799500Y-94568994D01*
X120799500Y-94568996D01*
X120799499Y-94568996D01*
X119500500Y-94568996D01*
X119500500Y-29124500D01*
X119520185Y-29057461D01*
X119572989Y-29011706D01*
X119624500Y-29000500D01*
X163375500Y-29000500D01*
X163442539Y-29020185D01*
G37*
%TD.AperFunction*%
%TD*%
M02*
