M48
; DRILL file {KiCad 9.0.7} date 2026-03-03T12:04:45+0100
; FORMAT={-:-/ absolute / metric / decimal}
; #@! TF.CreationDate,2026-03-03T12:04:45+01:00
; #@! TF.GenerationSoftware,Kicad,Pcbnew,9.0.7
; #@! TF.FileFunction,MixedPlating,1,2
FMAT,2
METRIC
; #@! TA.AperFunction,Plated,PTH,ComponentDrill
T1C0.800
; #@! TA.AperFunction,Plated,PTH,ComponentDrill
T2C1.000
; #@! TA.AperFunction,Plated,PTH,ComponentDrill
T3C3.200
%
G90
G05
T1
X124.5Y-62.5
X124.5Y-72.66
X124.5Y-91.0
X124.5Y-93.0
X129.0Y-62.42
X129.0Y-72.58
X129.5Y-78.5
X129.5Y-80.5
X129.5Y-82.5
X129.5Y-84.5
X130.0Y-91.0
X130.0Y-93.0
X134.0Y-41.5
X149.0Y-41.5
X153.0Y-64.5
X153.0Y-72.5
X153.0Y-89.5
X155.0Y-64.5
X155.0Y-72.5
X155.0Y-89.5
X157.0Y-64.5
X157.0Y-72.5
X157.0Y-89.5
X159.0Y-64.5
X159.0Y-72.5
X159.0Y-89.5
T2
X133.5Y-55.3
X133.5Y-57.84
X133.5Y-60.38
X133.5Y-62.92
X133.5Y-65.46
X133.5Y-68.0
X133.5Y-70.54
X133.5Y-73.08
X133.5Y-75.62
X133.5Y-78.16
X133.5Y-80.7
X133.5Y-83.24
X133.5Y-85.78
X133.5Y-88.32
X133.5Y-90.86
X134.38Y-97.0
X136.92Y-97.0
X139.46Y-97.0
X142.0Y-97.0
X148.75Y-55.3
X148.75Y-57.84
X148.75Y-60.38
X148.75Y-62.92
X148.75Y-65.46
X148.75Y-68.0
X148.75Y-70.54
X148.75Y-73.08
X148.75Y-75.62
X148.75Y-78.16
X148.75Y-80.7
X148.75Y-83.24
X148.75Y-85.78
X148.75Y-88.32
X148.75Y-90.82
T3
X122.5Y-32.0
X122.5Y-99.5
X160.5Y-32.0
X160.5Y-99.5
M30
